<svg width="60" height="60" viewBox="0 0 60 60" fill="none" xmlns="http://www.w3.org/2000/svg">
<path d="M27.5 1.44338C29.047 0.550211 30.953 0.550212 32.5 1.44338L53.4808 13.5566C55.0278 14.4498 55.9808 16.1004 55.9808 17.8868V42.1133C55.9808 43.8996 55.0278 45.5502 53.4808 46.4434L32.5 58.5566C30.953 59.4498 29.047 59.4498 27.5 58.5566L6.51924 46.4434C4.97223 45.5502 4.01924 43.8996 4.01924 42.1133V17.8868C4.01924 16.1004 4.97223 14.4498 6.51924 13.5566L27.5 1.44338Z" fill="#32D3CA"/>
<path d="M35.3493 25.2831C35.0507 25.1836 34.8164 24.9493 34.7169 24.6507L30.4743 11.923C30.3224 11.4672 29.6776 11.4672 29.5257 11.923L25.2831 24.6507C25.1836 24.9493 24.9493 25.1836 24.6507 25.2831L11.923 29.5257C11.4672 29.6776 11.4672 30.3224 11.923 30.4743L24.6507 34.7169C24.9493 34.8164 25.1836 35.0507 25.2831 35.3493L29.5257 48.077C29.6776 48.5328 30.3224 48.5328 30.4743 48.077L34.7169 35.3493C34.8164 35.0507 35.0507 34.8164 35.3493 34.7169L48.077 30.4743C48.5328 30.3224 48.5328 29.6776 48.077 29.5257L35.3493 25.2831ZM18.5406 30C18.257 30 18.1925 29.6025 18.4615 29.5128L25.9272 27.0243C26.3993 26.8669 26.9153 27.0806 27.1379 27.5257L28.0132 29.2764C28.1794 29.6088 27.9377 30 27.566 30H18.5406ZM30 41.4594C30 41.743 29.6025 41.8075 29.5128 41.5385L27.0243 34.0728C26.8669 33.6007 27.0806 33.0847 27.5257 32.8621L29.2764 31.9868C29.6088 31.8206 30 32.0623 30 32.434V41.4594ZM30 18.5406C30 18.257 30.3975 18.1925 30.4872 18.4615L32.9757 25.9272C33.1331 26.3993 32.9194 26.9153 32.4743 27.1379L30.7236 28.0132C30.3912 28.1794 30 27.9377 30 27.566V18.5406ZM34.0728 32.9757C33.6007 33.1331 33.0847 32.9194 32.8621 32.4743L31.9868 30.7236C31.8206 30.3912 32.0623 30 32.434 30H41.4594C41.743 30 41.8075 30.3975 41.5385 30.4872L34.0728 32.9757ZM24.4203 37.7981C24.5458 38.2686 24.3141 38.7611 23.8716 38.9644L19.2384 41.0932C19.0275 41.1901 18.81 40.9725 18.9068 40.7616L21.0202 36.1619C21.2302 35.7048 21.7471 35.4749 22.2272 35.6249L23.4615 36.0106C23.789 36.113 24.0411 36.376 24.1295 36.7075L24.4203 37.7981ZM37.7981 35.5797C38.2686 35.4542 38.7611 35.6859 38.9644 36.1284L41.0932 40.7616C41.19 40.9725 40.9725 41.1901 40.7616 41.0932L36.1619 38.9798C35.7048 38.7698 35.4749 38.2529 35.6249 37.7728L36.0106 36.5385C36.113 36.211 36.376 35.9589 36.7075 35.8705L37.7981 35.5797ZM22.2381 24.354C21.7541 24.5153 21.2262 24.2864 21.0132 23.8228L18.9068 19.2384C18.81 19.0275 19.0275 18.81 19.2384 18.9068L23.8228 21.0132C24.2864 21.2262 24.5153 21.7541 24.354 22.2381L23.9831 23.3507C23.8836 23.6493 23.6493 23.8836 23.3507 23.9831L22.2381 24.354ZM35.5797 22.2019C35.4542 21.7314 35.6859 21.2389 36.1284 21.0356L40.7616 18.9068C40.9725 18.81 41.19 19.0275 41.0932 19.2384L38.9798 23.8381C38.7698 24.2952 38.2529 24.5251 37.7728 24.3751L36.5385 23.9894C36.211 23.887 35.9589 23.624 35.8705 23.2925L35.5797 22.2019Z" fill="#001C36"/>
</svg>
