<svg width="21" height="21" viewBox="0 0 21 21" fill="none" xmlns="http://www.w3.org/2000/svg">
<rect width="21" height="21" rx="5" fill="#32D3CA"/>
<path fill-rule="evenodd" clip-rule="evenodd" d="M15.7575 6.26352C15.9048 6.4323 15.9875 6.66119 15.9875 6.89985C15.9875 7.1385 15.9048 7.36739 15.7575 7.53617L9.47333 14.7365C9.32602 14.9052 9.12625 15 8.91796 15C8.70967 15 8.5099 14.9052 8.3626 14.7365L5.22051 11.1363C5.07742 10.9666 4.99824 10.7392 5.00003 10.5032C5.00182 10.2673 5.08443 10.0415 5.23007 9.87464C5.37572 9.70776 5.57274 9.61311 5.7787 9.61106C5.98466 9.60901 6.18308 9.69972 6.33123 9.86367L8.91796 12.8275L14.6468 6.26352C14.7941 6.09479 14.9939 6 15.2021 6C15.4104 6 15.6102 6.09479 15.7575 6.26352Z" fill="white"/>
</svg>
