<svg width="19" height="14" viewBox="0 0 19 14" fill="none" xmlns="http://www.w3.org/2000/svg">
<path fill-rule="evenodd" clip-rule="evenodd" d="M18.6023 0.409906C18.8569 0.672448 19 1.02848 19 1.39972C19 1.77095 18.8569 2.12699 18.6023 2.38953L7.73545 13.5897C7.48072 13.8521 7.13528 13.9996 6.77509 13.9996C6.4149 13.9996 6.06946 13.8521 5.81473 13.5897L0.381306 7.9896C0.133871 7.72555 -0.00304355 7.37191 5.13494e-05 7.00483C0.00314625 6.63775 0.146003 6.2866 0.397853 6.02703C0.649704 5.76745 0.990396 5.62022 1.34655 5.61703C1.70271 5.61384 2.04583 5.75495 2.30202 6.00997L6.77509 10.6202L16.6816 0.409906C16.9363 0.147444 17.2817 0 17.6419 0C18.0021 0 18.3476 0.147444 18.6023 0.409906Z" fill="#001C36"/>
</svg>
