<svg width="440" height="26" viewBox="0 0 440 26" fill="none" xmlns="http://www.w3.org/2000/svg">
<path d="M219.516 13.1818C219.516 9.5 217.357 7.20455 214.38 7.20455C211.403 7.20455 209.244 9.5 209.244 13.1818C209.244 16.8636 211.403 19.1591 214.38 19.1591C217.357 19.1591 219.516 16.8636 219.516 13.1818ZM218.153 13.1818C218.153 16.2045 216.494 17.8409 214.38 17.8409C212.266 17.8409 210.607 16.2045 210.607 13.1818C210.607 10.1591 212.266 8.52273 214.38 8.52273C216.494 8.52273 218.153 10.1591 218.153 13.1818ZM221.886 19H223.295V14.4545H225.84C225.942 14.4545 226.039 14.4545 226.136 14.4489L228.59 19H230.227L227.596 14.1932C229.079 13.6875 229.772 12.4773 229.772 10.9318C229.772 8.875 228.545 7.36364 225.817 7.36364H221.886V19ZM223.295 13.1818V8.61364H225.772C227.658 8.61364 228.386 9.53409 228.386 10.9318C228.386 12.3295 227.658 13.1818 225.795 13.1818H223.295Z" fill="#C3CAD3"/>
<line x1="0.5" y1="12.5" x2="199.5" y2="12.5" stroke="#C3CAD3" stroke-linecap="round"/>
<line x1="240.5" y1="12.5" x2="439.5" y2="12.5" stroke="#C3CAD3" stroke-linecap="round"/>
</svg>
