<svg width="9" height="5" viewBox="0 0 9 5" fill="none" xmlns="http://www.w3.org/2000/svg">
<path d="M0.245924 0.255719C0.584213 -0.0722496 1.05518 -0.097987 1.46873 0.255719L4.50092 3.0111L7.53311 0.255719C7.94666 -0.097987 8.4184 -0.0722496 8.75436 0.255719C9.09265 0.582952 9.07093 1.13594 8.75436 1.44332C8.43935 1.7507 5.11155 4.75389 5.11155 4.75389C5.0323 4.83173 4.93732 4.89364 4.83228 4.93592C4.72723 4.97821 4.61427 5 4.50014 5C4.38601 5 4.27306 4.97821 4.16801 4.93592C4.06297 4.89364 3.96799 4.83173 3.88874 4.75389C3.88874 4.75389 0.562488 1.7507 0.245924 1.44332C-0.0714164 1.13594 -0.0923655 0.582952 0.245924 0.255719Z" fill="#32D3CA"/>
</svg>
