<svg width="30" height="30" viewBox="0 0 30 30" fill="none" xmlns="http://www.w3.org/2000/svg">
<path fill-rule="evenodd" clip-rule="evenodd" d="M0 15C0 6.71591 6.71591 0 15 0C23.2841 0 30 6.71591 30 15C30 23.2841 23.2841 30 15 30C6.71591 30 0 23.2841 0 15ZM10.9582 9.51273C10.7643 9.33207 10.5079 9.23372 10.2429 9.2384C9.97797 9.24307 9.72517 9.35041 9.53779 9.53779C9.35041 9.72517 9.24307 9.97797 9.2384 10.2429C9.23372 10.5079 9.33207 10.7643 9.51273 10.9582L13.5532 15L9.51273 19.0405C9.41224 19.1341 9.33165 19.247 9.27575 19.3724C9.21986 19.4979 9.1898 19.6333 9.18738 19.7707C9.18495 19.908 9.21021 20.0444 9.26165 20.1717C9.31309 20.2991 9.38965 20.4148 9.48677 20.5119C9.58388 20.609 9.69957 20.6855 9.82691 20.737C9.95426 20.7884 10.0907 20.8137 10.228 20.8113C10.3653 20.8088 10.5007 20.7788 10.6262 20.7229C10.7516 20.667 10.8646 20.5864 10.9582 20.4859L15 16.4455L19.0405 20.4873C19.2333 20.6737 19.4916 20.7769 19.7597 20.7747C20.0279 20.7725 20.2844 20.665 20.4741 20.4755C20.6639 20.286 20.7715 20.0295 20.774 19.7613C20.7764 19.4932 20.6735 19.2348 20.4873 19.0418L16.4468 15L20.4873 10.9582C20.5878 10.8646 20.6683 10.7516 20.7242 10.6262C20.7801 10.5007 20.8102 10.3653 20.8126 10.228C20.815 10.0907 20.7898 9.95426 20.7383 9.82691C20.6869 9.69957 20.6104 9.58388 20.5132 9.48677C20.4161 9.38965 20.3004 9.31309 20.1731 9.26165C20.0457 9.21021 19.9093 9.18495 19.772 9.18738C19.6347 9.1898 19.4993 9.21986 19.3738 9.27575C19.2484 9.33165 19.1354 9.41224 19.0418 9.51273L15 13.5532L10.9582 9.51273Z" fill="#001C36"/>
</svg>
