<svg width="14" height="14" viewBox="0 0 14 14" fill="none" xmlns="http://www.w3.org/2000/svg">
<path fill-rule="evenodd" clip-rule="evenodd" d="M0.340513 0.369787C0.558826 0.152213 0.854758 0.0300037 1.16331 0.0300037C1.47186 0.0300037 1.76779 0.152213 1.9861 0.369787L6.98497 5.35794L11.9838 0.369787C12.0904 0.255637 12.219 0.164081 12.3618 0.10058C12.5046 0.0370789 12.6588 0.00293326 12.8151 0.000180815C12.9715 -0.00257163 13.1268 0.0261252 13.2717 0.0845594C13.4167 0.142994 13.5484 0.229968 13.659 0.340294C13.7695 0.45062 13.8567 0.582038 13.9153 0.726707C13.9738 0.871376 14.0026 1.02633 13.9998 1.18233C13.9971 1.33833 13.9628 1.49218 13.8992 1.6347C13.8356 1.77722 13.7438 1.90548 13.6294 2.01185L8.63056 7L13.6294 11.9882C13.7438 12.0945 13.8356 12.2228 13.8992 12.3653C13.9628 12.5078 13.9971 12.6617 13.9998 12.8177C14.0026 12.9737 13.9738 13.1286 13.9153 13.2733C13.8567 13.418 13.7695 13.5494 13.659 13.6597C13.5484 13.77 13.4167 13.857 13.2717 13.9154C13.1268 13.9739 12.9715 14.0026 12.8151 13.9998C12.6588 13.9971 12.5046 13.9629 12.3618 13.8994C12.219 13.8359 12.0904 13.7444 11.9838 13.6302L6.98497 8.64206L1.9861 13.6302C1.76538 13.8354 1.47345 13.9472 1.17181 13.9419C0.870169 13.9365 0.58237 13.8146 0.369044 13.6017C0.155718 13.3889 0.0335224 13.1017 0.0282003 12.8007C0.0228782 12.4997 0.134845 12.2084 0.340513 11.9882L5.33938 7L0.340513 2.01185C0.122472 1.794 0 1.49871 0 1.19082C0 0.88293 0.122472 0.587632 0.340513 0.369787Z" fill="#001C36"/>
</svg>
