<svg width="40" height="40" viewBox="0 0 40 40" fill="none" xmlns="http://www.w3.org/2000/svg">
<path d="M17.5 1.44338C19.047 0.550211 20.953 0.550212 22.5 1.44338L34.8205 8.55662C36.3675 9.44979 37.3205 11.1004 37.3205 12.8868V27.1132C37.3205 28.8996 36.3675 30.5502 34.8205 31.4434L22.5 38.5566C20.953 39.4498 19.047 39.4498 17.5 38.5566L5.17949 31.4434C3.63249 30.5502 2.67949 28.8996 2.67949 27.1132V12.8868C2.67949 11.1004 3.63249 9.44979 5.17949 8.55662L17.5 1.44338Z" fill="#32D3CA"/>
<path d="M23.7243 16.9081C23.4257 16.8086 23.1914 16.5743 23.0919 16.2757L20.4743 8.42302C20.3224 7.96718 19.6776 7.96718 19.5257 8.42302L16.9081 16.2757C16.8086 16.5743 16.5743 16.8086 16.2757 16.9081L8.42302 19.5257C7.96718 19.6776 7.96718 20.3224 8.42302 20.4743L16.2757 23.0919C16.5743 23.1914 16.8086 23.4257 16.9081 23.7243L19.5257 31.577C19.6776 32.0328 20.3224 32.0328 20.4743 31.577L23.0919 23.7243C23.1914 23.4257 23.4257 23.1914 23.7243 23.0919L31.577 20.4743C32.0328 20.3224 32.0328 19.6776 31.577 19.5257L23.7243 16.9081ZM12.8739 20C12.5903 20 12.5258 19.6025 12.7948 19.5128L17.0105 18.1076C17.4827 17.9502 17.9986 18.164 18.2212 18.6091L18.5549 19.2764C18.7211 19.6088 18.4793 20 18.1076 20H12.8739ZM20 27.1261C20 27.4097 19.6025 27.4742 19.5128 27.2052L18.1076 22.9895C17.9502 22.5173 18.164 22.0014 18.6091 21.7788L19.2764 21.4451C19.6088 21.2789 20 21.5207 20 21.8924V27.1261ZM20 12.8739C20 12.5903 20.3975 12.5258 20.4872 12.7948L21.8924 17.0105C22.0498 17.4827 21.836 17.9986 21.3909 18.2212L20.7236 18.5549C20.3912 18.7211 20 18.4793 20 18.1077V12.8739ZM22.9895 21.8924C22.5173 22.0498 22.0014 21.836 21.7788 21.3909L21.4451 20.7236C21.2789 20.3912 21.5207 20 21.8923 20H27.1261C27.4097 20 27.4742 20.3975 27.2052 20.4872L22.9895 21.8924ZM16.2078 24.9272C16.3333 25.3978 16.1016 25.8903 15.6591 26.0936L13.03 27.3015C12.8192 27.3984 12.6016 27.1808 12.6985 26.97L13.8911 24.3744C14.1011 23.9173 14.6179 23.6874 15.098 23.8374L15.4657 23.9523C15.7931 24.0546 16.0453 24.3176 16.1337 24.6491L16.2078 24.9272ZM24.9272 23.7922C25.3978 23.6667 25.8903 23.8984 26.0936 24.3409L27.3015 26.97C27.3984 27.1808 27.1808 27.3984 26.97 27.3015L24.3744 26.1089C23.9173 25.8989 23.6874 25.3821 23.8374 24.902L23.9523 24.5343C24.0546 24.2069 24.3176 23.9547 24.6491 23.8663L24.9272 23.7922ZM15.1089 16.1415C14.6249 16.3028 14.097 16.0739 13.884 15.6103L12.6985 13.03C12.6016 12.8192 12.8192 12.6016 13.03 12.6985L15.6103 13.884C16.0739 14.097 16.3028 14.6249 16.1415 15.1089L16.0414 15.409C15.9419 15.7076 15.7076 15.9419 15.409 16.0414L15.1089 16.1415ZM23.7922 15.0728C23.6667 14.6022 23.8984 14.1097 24.3409 13.9064L26.97 12.6985C27.1808 12.6016 27.3984 12.8192 27.3015 13.03L26.1089 15.6256C25.8989 16.0827 25.3821 16.3126 24.902 16.1626L24.5343 16.0477C24.2069 15.9454 23.9547 15.6824 23.8663 15.3509L23.7922 15.0728Z" fill="#001C36"/>
</svg>
