<svg width="520" height="26" viewBox="0 0 520 26" fill="none" xmlns="http://www.w3.org/2000/svg">
<path d="M260.588 13.1818C260.588 9.5 258.429 7.20455 255.452 7.20455C252.474 7.20455 250.315 9.5 250.315 13.1818C250.315 16.8636 252.474 19.1591 255.452 19.1591C258.429 19.1591 260.588 16.8636 260.588 13.1818ZM259.224 13.1818C259.224 16.2045 257.565 17.8409 255.452 17.8409C253.338 17.8409 251.679 16.2045 251.679 13.1818C251.679 10.1591 253.338 8.52273 255.452 8.52273C257.565 8.52273 259.224 10.1591 259.224 13.1818ZM262.957 19H264.366V14.4545H266.912C267.014 14.4545 267.111 14.4545 267.207 14.4489L269.662 19H271.298L268.667 14.1932C270.15 13.6875 270.844 12.4773 270.844 10.9318C270.844 8.875 269.616 7.36364 266.889 7.36364H262.957V19ZM264.366 13.1818V8.61364H266.844C268.73 8.61364 269.457 9.53409 269.457 10.9318C269.457 12.3295 268.73 13.1818 266.866 13.1818H264.366Z" fill="#C3CAD3"/>
<line y1="12.5" x2="237" y2="12.5" stroke="#C3CAD3"/>
<line x1="283" y1="12.5" x2="520" y2="12.5" stroke="#C3CAD3"/>
</svg>
