<svg width="237" height="151" viewBox="0 0 237 151" fill="none" xmlns="http://www.w3.org/2000/svg">
<rect width="237" height="151" fill="white"/>
<path d="M237 149.293H0V151H237V149.293Z" fill="#85848B"/>
<path d="M187.765 119.157C187.765 120.47 180 124.298 170.776 124.298C161.552 124.298 154.364 120.47 154.364 119.157C154.364 117.845 161.841 118.267 171.074 118.267C180.307 118.267 187.765 117.842 187.765 119.157Z" fill="#001C36"/>
<path opacity="0.2" d="M187.765 119.157C187.765 120.47 180 124.298 170.776 124.298C161.552 124.298 154.364 120.47 154.364 119.157" fill="#001C36"/>
<path d="M94.8721 95.0673C96.3691 95.2565 97.9227 95.3766 99.3565 94.9182C99.5823 94.8492 99.8307 94.6957 99.8081 94.4732C99.792 94.3923 99.7572 94.3162 99.7065 94.2506C99.166 93.4518 98.7119 92.5993 98.3517 91.7072C98.3374 91.6607 98.3081 91.6201 98.2682 91.5915C98.2215 91.5749 98.1703 91.5749 98.1236 91.5915C97.462 91.7629 96.8908 92.1834 96.2337 92.3637C95.8986 92.4543 95.5489 92.48 95.204 92.4393C94.9059 92.406 94.4995 92.1634 94.2285 92.1946C94.3821 93.167 94.7569 94.0749 94.8721 95.0673Z" fill="#32D3CA"/>
<path d="M123.186 92.604C124.173 91.9365 125.196 91.2355 125.778 90.2052C125.82 90.1436 125.844 90.0722 125.848 89.9983C125.838 89.9256 125.809 89.8566 125.765 89.798C125.21 88.9287 124.495 88.1688 123.658 87.5573C123.221 87.8614 122.826 88.2205 122.484 88.6254C122.235 88.8835 121.549 89.2929 121.542 89.6868C121.542 89.9093 121.804 90.1674 121.926 90.3543C122.091 90.5947 122.247 90.8394 122.396 91.0887C122.481 91.211 123.265 92.5551 123.186 92.604Z" fill="#32D3CA"/>
<path d="M100.741 98.0468C100.759 98.2761 100.695 98.5042 100.56 98.6922C100.455 98.7966 100.325 98.8732 100.181 98.9147C98.0879 99.6534 95.665 98.7322 93.5763 99.4599C93.1472 99.6089 92.7408 99.8248 92.3095 99.9672C91.7953 100.12 91.2649 100.212 90.7289 100.243C89.9905 100.312 89.2476 100.357 88.507 100.377C87.9442 100.416 87.3787 100.367 86.8315 100.232C86.5578 100.163 86.302 100.038 86.0806 99.865C85.8593 99.6921 85.6773 99.4752 85.5467 99.2284C85.4331 99.0072 85.4105 98.7514 85.4834 98.5141C85.5162 98.4328 85.5628 98.3575 85.6212 98.2916C85.7627 98.1351 85.9289 98.0021 86.1134 97.8978L86.8834 97.4082C87.2445 97.1566 87.6368 96.9517 88.0508 96.7985C88.3557 96.7006 88.6786 96.6583 88.9879 96.576C90.0695 96.2645 90.896 95.4189 91.6637 94.6067L92.7114 93.5052C92.8094 93.384 92.9336 93.2859 93.075 93.2181C93.2203 93.1704 93.3748 93.1559 93.5266 93.1759C94.5443 93.2475 95.5271 93.5721 96.383 94.1194C96.6018 94.2811 96.8381 94.4184 97.0875 94.5288C97.7017 94.7647 98.4898 94.5867 99.0566 94.2885C99.3253 94.1461 99.2666 94.0659 99.3795 93.8123C99.4924 93.5586 99.7678 93.3962 100.007 93.6276C100.079 93.7076 100.131 93.8039 100.156 93.908C100.382 94.6423 100.296 95.4322 100.296 96.2021C100.29 96.3225 100.305 96.4431 100.341 96.5582C100.399 96.6742 100.468 96.7845 100.547 96.8875C100.563 96.9148 100.577 96.943 100.59 96.9721C100.728 97.3129 100.78 97.6818 100.741 98.0468Z" fill="#514E7F"/>
<path d="M100.741 98.0468C100.759 98.2761 100.695 98.5042 100.56 98.6922C100.455 98.7966 100.325 98.8732 100.181 98.9147C98.0878 99.6534 95.665 98.7322 93.5763 99.4599C93.1472 99.6089 92.7408 99.8248 92.3095 99.9672C91.7953 100.12 91.2649 100.212 90.7289 100.243C89.9905 100.312 89.2476 100.357 88.507 100.377C87.9442 100.416 87.3787 100.367 86.8315 100.232C86.5578 100.163 86.302 100.038 86.0806 99.865C85.8593 99.6921 85.6773 99.4752 85.5467 99.2284C85.4331 99.0072 85.4105 98.7514 85.4834 98.5141C85.5162 98.4328 85.5628 98.3575 85.6212 98.2916C85.7431 98.5431 85.8312 98.8768 85.9079 98.997C86.0117 99.1751 86.1527 99.3293 86.3217 99.4494C86.4907 99.5695 86.6837 99.6527 86.8879 99.6935C87.1936 99.712 87.5 99.6735 87.7912 99.58C89.6879 99.1172 91.7043 99.1105 93.5266 98.4096C94.1521 98.167 94.7482 97.8444 95.4053 97.6975C96.0624 97.5506 96.7601 97.5907 97.4375 97.535C98.5078 97.4505 99.5443 97.1323 100.599 96.9654C100.735 97.3091 100.784 97.6803 100.741 98.0468Z" fill="#001C36"/>
<path d="M127.98 92.4683C127.88 93.2515 127.377 93.9258 126.824 94.4977C126.27 95.0695 125.645 95.5836 125.205 96.2422C124.663 97.0589 124.419 98.0713 123.714 98.7611C123.444 99.012 123.14 99.2253 122.811 99.3953C122.443 99.6095 122.053 99.7863 121.648 99.9227C120.596 100.254 119.462 100.179 118.363 100.098C118.006 100.095 117.652 100.028 117.319 99.9004C117.168 99.8246 117.023 99.7368 116.886 99.6379C116.61 99.4706 116.378 99.242 116.208 98.9703C116.125 98.8226 116.102 98.6493 116.143 98.4852C116.206 98.3045 116.314 98.1423 116.457 98.0135C116.704 97.7599 116.97 97.5242 117.252 97.3081C117.638 97.0622 117.987 96.7624 118.286 96.418C118.469 96.1459 118.605 95.8449 118.686 95.5279C118.845 94.9727 118.943 94.4019 118.977 93.8256C118.976 93.4428 119.016 93.0609 119.096 92.6863C119.264 92.0989 119.706 91.5737 119.656 90.9663C119.636 90.8793 119.644 90.7883 119.679 90.7059C119.732 90.6415 119.805 90.5968 119.887 90.5791C120.232 90.4435 120.596 90.3603 120.966 90.3321C121.152 90.3194 121.338 90.3476 121.512 90.4146C121.685 90.4815 121.841 90.5856 121.969 90.7193C122.122 90.9017 122.224 91.1643 122.45 91.2355C122.562 91.2656 122.679 91.2702 122.793 91.2489C123.348 91.1932 123.935 91.1243 124.374 90.7704C124.576 90.5915 124.739 90.3732 124.851 90.1292C124.964 89.8853 125.024 89.621 125.028 89.353C125.028 89.1505 124.936 88.9391 125.254 88.908C125.494 88.8768 125.683 89.1305 125.805 89.2862C126.245 89.867 126.697 90.4745 126.862 91.1821C126.926 91.1576 126.994 91.1448 127.063 91.1443C127.204 91.1431 127.343 91.1754 127.468 91.2386C127.594 91.3017 127.702 91.3938 127.783 91.507C127.963 91.794 128.033 92.135 127.98 92.4683Z" fill="#514E7F"/>
<path d="M127.979 92.4683C127.88 93.2515 127.376 93.9258 126.823 94.4976C126.27 95.0695 125.644 95.5835 125.204 96.2422C124.662 97.0589 124.418 98.0713 123.714 98.7611C123.443 99.012 123.139 99.2253 122.811 99.3953C122.442 99.6095 122.052 99.7863 121.648 99.9227C120.595 100.254 119.462 100.179 118.362 100.098C118.005 100.095 117.652 100.028 117.319 99.9004C117.167 99.8246 117.022 99.7368 116.885 99.6379C116.61 99.4706 116.378 99.242 116.208 98.9703C116.42 98.87 116.651 98.8154 116.885 98.8101C117.373 98.8368 117.73 99.2907 118.197 99.4309C118.863 99.629 119.527 99.1661 120.202 99.0081C120.643 98.9058 121.106 98.9325 121.541 98.7856C121.905 98.6473 122.24 98.4469 122.533 98.1937C122.934 97.9112 123.291 97.5723 123.592 97.1879C123.842 96.8035 124.05 96.394 124.213 95.9663C124.569 95.1466 124.989 94.3551 125.468 93.5987C125.539 93.4789 125.625 93.3683 125.723 93.2693C125.83 93.1736 125.949 93.1069 126.069 93.0223C126.52 92.6863 126.708 92.1322 126.866 91.5893C126.909 91.4243 126.969 91.264 127.044 91.1109C127.185 91.1097 127.324 91.142 127.45 91.2052C127.575 91.2683 127.683 91.3604 127.765 91.4736C127.959 91.7674 128.035 92.122 127.979 92.4683Z" fill="#001C36"/>
<path d="M80.6308 23.0909C81.1928 23.506 81.6553 24.0378 81.9856 24.6486C82.3017 25.2583 84.124 29.9891 84.0178 30.6767C84.6117 30.087 86.9533 29.9913 87.5539 29.4016C87.8046 29.1546 89.1571 27.9219 89.3604 27.6348C89.5636 27.3478 91.072 26.7447 91.2368 26.4421C91.8533 25.354 86.8652 21.2307 87.5043 20.1559C87.5396 20.1065 87.5578 20.0472 87.5562 19.9868C87.5416 19.9361 87.5126 19.8905 87.4726 19.8555C87.0639 19.4438 86.522 19.1879 86.0297 18.8831C85.5375 18.5782 85.0633 18.1532 84.9301 17.5925C84.4606 17.8054 84.0297 18.0925 83.6543 18.4425C82.739 19.2154 81.8396 20.0038 80.9559 20.8079C80.6104 21.1239 79.942 21.5444 79.7817 21.9961C79.592 22.4812 80.3011 22.8261 80.6308 23.0909Z" fill="#A1616A"/>
<path d="M88.7052 21.3397C87.9399 21.8465 87.2247 22.4232 86.5691 23.062C85.9504 23.6651 85.3633 24.3638 85.2143 25.2071C85.151 25.5387 85.1601 25.8747 85.1081 26.2107C84.8823 27.6682 83.6043 28.7363 83.0398 30.1003C82.8762 30.5213 82.756 30.9574 82.6807 31.4021C82.5221 32.245 82.4353 33.0995 82.4211 33.9566C82.4075 34.7866 83.234 35.3585 83.5365 36.1329C83.8391 36.9072 83.9204 37.7039 84.074 38.4983C84.363 39.998 84.8936 41.4444 85.4288 42.8819C86.542 45.9126 90.1504 54.2905 91.2636 57.3235C94.6755 56.4801 103.757 54.542 106.779 52.764C107.786 52.1721 99.79 45.4943 100.867 45.0337C100.929 45.0242 100.987 45.0008 101.038 44.9653C101.089 44.9297 101.13 44.883 101.16 44.8288C101.189 44.7747 101.205 44.7145 101.207 44.6531C101.209 44.5918 101.196 44.5308 101.17 44.4751C100.093 39.8334 96.7235 36.0194 95.1948 31.5C94.6642 29.9312 93.7113 28.5917 92.9887 27.1008C92.3339 25.7501 91.9839 24.257 91.2004 22.973C91.0526 22.7085 90.8593 22.4713 90.6291 22.2721C90.4337 22.1244 90.2224 21.9983 89.9991 21.896C89.552 21.6824 89.1365 21.5556 88.7052 21.3397Z" fill="#514E7F"/>
<path d="M80.811 22.5635C83.7603 22.5635 86.1513 20.2074 86.1513 17.3009C86.1513 14.3945 83.7603 12.0383 80.811 12.0383C77.8616 12.0383 75.4707 14.3945 75.4707 17.3009C75.4707 20.2074 77.8616 22.5635 80.811 22.5635Z" fill="#A1616A"/>
<path d="M86.2441 19.7732C86.5103 19.5312 86.8446 19.3745 87.203 19.3237C87.5614 19.2728 87.927 19.3302 88.2515 19.4883C88.6128 19.673 88.929 20.0469 88.8477 20.4385L91.4964 20.4785C91.9179 20.4672 92.3394 20.5053 92.7518 20.592C93.1669 20.6811 93.5375 20.9101 93.7996 21.2396C93.8312 21.2818 93.8673 21.333 93.9215 21.3397C93.9656 21.3404 94.0086 21.3262 94.0434 21.2996C94.4509 21.0983 94.9099 21.0208 95.3621 21.0771C96.7937 21.1684 98.117 21.8737 99.2392 22.7549C99.4416 22.892 99.5986 23.0847 99.6908 23.309C99.7834 23.605 99.6727 23.9766 99.9166 24.188C99.9166 26.6357 100.77 28.9232 101.339 31.3086C101.441 31.7336 101.854 32.1097 102.141 32.4435C102.495 32.8135 102.784 33.2391 102.997 33.7029C103.48 34.9401 102.814 36.3954 103.283 37.6371C103.482 38.1622 103.866 38.5939 104.187 39.0501C104.609 39.5768 104.876 40.2082 104.959 40.8748C104.979 41.1729 104.941 41.4733 104.959 41.7648C104.989 42.1658 105.065 42.5621 105.185 42.9464C105.377 43.6644 105.579 44.3817 105.79 45.0982C106.133 46.2553 106.58 47.5036 107.632 48.12C105.092 48.545 102.414 48.9611 99.9934 48.0911C99.6557 47.9776 99.3352 47.8196 99.0405 47.6216C98.1666 47.0074 97.7444 45.9571 97.3673 44.9647C96.9473 43.8521 96.5205 42.7194 96.4347 41.5356C96.4355 41.1591 96.3815 40.7844 96.2744 40.423C96.0283 39.7777 95.3712 39.3883 94.775 39.0301C94.1019 38.6666 93.492 38.1993 92.9686 37.646C92.7089 37.3673 92.51 37.0391 92.3841 36.6816C92.2583 36.3241 92.2082 35.945 92.237 35.5676C92.2822 35.2005 92.4289 34.8467 92.4425 34.4773C92.456 34.1079 92.2889 33.6851 91.9299 33.5872C90.0806 33.0354 89.1977 30.8769 88.7867 29.0166C88.6094 28.0552 88.5299 27.0787 88.5496 26.1016L88.5248 24.2035C88.2696 23.9747 88.0643 23.6971 87.9214 23.3876C87.7786 23.0782 87.7011 22.7433 87.6938 22.4033C87.7183 22.205 87.7145 22.0043 87.6825 21.807C87.5932 21.5658 87.4478 21.3486 87.258 21.1728C86.8497 20.7599 86.5078 20.2879 86.2441 19.7732Z" fill="#001C36"/>
<path d="M80.5554 25.7901C80.4945 26.3776 80.63 26.9806 80.4967 27.5569C80.4448 27.7794 80.3545 28.002 80.289 28.2089C80.0888 29.0384 80.1754 29.9101 80.5351 30.6856C80.8943 31.4534 81.3244 32.1871 81.8199 32.8774C81.9875 33.113 82.1255 33.3678 82.2309 33.6362C82.3163 33.918 82.3693 34.2083 82.389 34.5018C82.5197 35.6802 82.7294 36.8487 83.0167 37.9998C83.2696 38.9967 86.1419 47.5192 86.8102 48.3092C86.9315 48.4841 87.1154 48.6073 87.3251 48.6541C87.4762 48.6597 87.6265 48.6291 87.7631 48.5651L89.118 48.0533C89.2332 48.0185 89.34 47.961 89.4318 47.8842C89.5588 47.738 89.6278 47.5514 89.626 47.359C89.7231 46.2731 86.8441 37.6905 86.4783 36.6647C85.3719 33.5672 83.8996 30.581 83.1793 27.3745C82.9783 26.4844 82.8722 25.1137 82.2106 24.4038C81.9374 24.1101 82.0299 24.2347 81.7025 24.3882C81.5371 24.459 81.3771 24.5415 81.2238 24.6352C81.0322 24.7665 80.8727 24.9384 80.7571 25.1382C80.6414 25.338 80.5725 25.5607 80.5554 25.7901Z" fill="#001C36"/>
<path d="M84.6679 31.6668C85.0315 33.5605 85.4063 35.4497 85.7789 37.3433L91.0808 35.9748C91.1237 35.4274 90.8279 34.9201 90.6292 34.4172C90.1459 33.2223 90.1346 31.8916 89.744 30.6633C89.4482 29.7287 88.9334 28.8698 88.6556 27.9285C88.4953 27.3811 88.414 26.8159 88.2559 26.2618C88.0864 25.7177 87.8782 25.186 87.6327 24.6708C87.3351 23.9236 86.9469 23.2145 86.4766 22.5591C85.7992 22.8083 85.0766 23.0976 84.6905 23.7006C84.4924 24.0404 84.3794 24.4218 84.3608 24.8132C84.2682 25.9859 84.6995 27.1653 84.5573 28.3313C84.4107 29.4417 84.4481 30.5682 84.6679 31.6668Z" fill="#F4B30C"/>
<path d="M91.1687 56.8561C91.4668 57.9687 91.0355 59.1392 90.6833 60.2407C90.1529 61.8998 89.7914 63.6067 89.6039 65.3364C89.5809 65.7765 89.4911 66.2108 89.3375 66.6248C89.1704 66.9964 88.8859 67.3101 88.6917 67.6639C88.1588 68.5941 88.1723 69.7289 88.2875 70.7926C88.3643 71.4935 88.4794 72.1922 88.6217 72.882C88.7955 73.7254 89.0101 74.6066 88.7594 75.4299C89.1794 75.3387 89.4639 75.8749 89.4368 76.2955C89.4097 76.7161 89.272 77.1856 89.4775 77.5483C89.9968 77.7352 90.0013 78.4384 89.9855 78.9835C89.9941 79.9288 90.1154 80.8699 90.3468 81.7873C91.1326 85.5108 91.9666 89.2239 92.8487 92.9267C94.7568 93.5097 96.9855 94.1171 98.8055 93.3094C99.1442 93.1603 99.4829 92.9222 99.5596 92.5617C99.5795 92.3675 99.5548 92.1712 99.4874 91.9876L98.6248 88.8946C98.4148 88.1469 98.2048 87.3748 98.3155 86.6071C98.399 86.0352 98.6519 85.4188 98.3674 84.9137C98.2703 84.7401 98.1168 84.6044 98.0038 84.4397C97.5522 83.7878 97.7893 82.9155 97.8255 82.1255C97.8396 81.9482 97.8274 81.7698 97.7893 81.5959C97.7275 81.3929 97.6411 81.1979 97.5319 81.0152C96.8191 79.6513 96.4768 78.1288 96.5384 76.5959C96.5654 76.4003 96.538 76.2011 96.4594 76.0196C96.4046 75.9446 96.3555 75.8658 96.3126 75.7837C96.2789 75.6408 96.2956 75.4909 96.36 75.3587C96.1012 75.1652 95.8676 74.941 95.6645 74.6911C95.7898 74.6144 95.8957 74.5106 95.9743 74.3877C96.0528 74.2647 96.102 74.1257 96.1181 73.9813C96.1342 73.8368 96.1168 73.6906 96.0672 73.5538C96.0175 73.417 95.937 73.293 95.8316 73.1913C95.9237 73.1731 96.0089 73.13 96.0776 73.0669C96.1463 73.0038 96.196 72.9232 96.221 72.8339C96.246 72.7447 96.2455 72.6504 96.2194 72.5615C96.1933 72.4725 96.1427 72.3925 96.0732 72.3302C95.9626 72.2545 95.8158 72.2211 95.7368 72.1077C95.6148 71.943 95.7142 71.7138 95.8135 71.538L96.3397 70.6012C96.7326 69.9047 96.8206 69.0436 97.2429 68.376C97.848 67.4036 98.2432 66.3199 98.6339 65.2474L100.154 61.1152L101.176 61.9897C101.517 62.2462 101.803 62.5669 102.016 62.9331C102.162 63.2951 102.254 63.6758 102.29 64.0636C102.664 66.3066 104.096 68.2514 104.627 70.461C104.744 70.9528 104.823 71.469 105.11 71.8896C105.213 72.0187 105.305 72.1556 105.385 72.299C105.46 72.5178 105.499 72.7469 105.501 72.9777C105.548 73.4297 105.693 73.8663 105.927 74.2579C106.161 74.6496 106.478 74.987 106.855 75.2474C107.359 75.5879 107.984 75.8215 108.258 76.36C108.312 76.5268 108.388 76.686 108.483 76.834C108.727 77.1233 109.253 77.1567 109.357 77.5194C109.416 77.7219 109.308 77.9644 109.423 78.1424C109.488 78.2248 109.575 78.2885 109.673 78.3271L111.143 79.0503C112.787 79.8603 113.627 81.7205 114.84 83.0757C115.259 83.5171 115.629 84.0003 115.946 84.5176C116.47 85.4411 116.712 86.6004 117.597 87.1879C117.835 87.3094 118.051 87.468 118.238 87.6574C118.516 88.0179 118.414 88.523 118.439 88.9769C118.464 89.4309 118.816 89.9716 119.254 89.8336C119.101 90.3834 119.101 90.9639 119.254 91.5137C121.178 91.4163 123.012 90.6843 124.461 89.4353C124.89 89.0659 125.304 88.5942 125.308 88.0334C125.315 87.9367 125.293 87.8401 125.245 87.7553C125.158 87.6458 125.044 87.5606 124.913 87.5083C123.538 86.774 123.125 85.0717 122.429 83.6898C121.822 82.4704 120.923 81.4201 120.171 80.2875C118.536 77.8509 117.421 74.9025 114.948 73.2937C114.404 72.9399 113.772 72.6261 113.499 72.0409C113.347 71.7138 113.329 71.34 113.21 71.0017C113.09 70.6635 112.803 70.3342 112.437 70.3342C112.641 69.8446 112.6 69.2483 112.613 68.7187C112.627 68.4836 112.6 68.248 112.532 68.0222C112.438 67.7793 112.316 67.5478 112.169 67.3324C111.523 66.256 111.201 65.0216 111.238 63.7721C111.256 63.129 111.371 62.4659 111.175 61.8517C111.076 61.5424 110.902 61.2598 110.782 60.9616C110.602 60.4213 110.507 59.857 110.5 59.2883L110.364 57.1498C110.344 56.4377 110.25 55.7294 110.084 55.0359C109.633 53.3759 109.181 46.4221 107.634 45.6389C106.088 44.8556 103.43 50.2072 101.689 50.3118C100.919 50.3434 100.158 50.4881 99.4309 50.7413C98.2726 51.1685 97.3016 51.9651 96.3555 52.744L93.1536 55.3942C92.4762 55.9438 91.9162 56.4689 91.1687 56.8561Z" fill="#001C36"/>
<path d="M75.8006 11.4576C76.5051 10.5097 77.7154 10.0068 78.9076 9.96447C80.0999 9.9222 81.2741 10.2916 82.3421 10.8145C82.6574 10.9912 82.9943 11.1273 83.3447 11.2195C83.9092 11.333 84.5369 11.1817 85.0473 11.442C85.7247 11.7958 85.8556 12.697 85.7969 13.4447C85.7382 14.1924 85.596 15.0224 86.0002 15.6699C86.1435 15.8546 86.274 16.0486 86.3908 16.2507C86.5647 16.6356 86.4631 17.0807 86.3592 17.4879C86.095 17.2654 85.946 16.9294 85.7111 16.6712C85.4763 16.4131 85.0676 16.2395 84.7763 16.4331C84.485 16.6267 84.4895 16.9783 84.4737 17.2943C84.4579 17.6103 84.3766 17.9886 84.074 18.0909C83.9477 18.1193 83.8155 18.1096 83.6948 18.0632C83.574 18.0168 83.4702 17.9357 83.3966 17.8306C82.8795 17.2075 83.0873 16.2128 82.5747 15.5853C82.2834 15.2293 81.7979 15.0557 81.5292 14.6819C81.317 14.3882 81.2628 14.0143 81.0776 13.6984C80.8924 13.3824 80.4612 13.151 80.1744 13.369C80.0765 13.4612 79.9949 13.5687 79.9328 13.6872C79.7539 13.9397 79.494 14.1253 79.1949 14.2141C78.8958 14.3029 78.575 14.2898 78.2844 14.1768C78.0624 14.0425 77.8221 13.9398 77.5709 13.8719C77.4064 13.8638 77.2429 13.9012 77.0989 13.9798C76.9548 14.0585 76.8359 14.1753 76.7557 14.317C76.5937 14.6001 76.5154 14.9224 76.5299 15.2471C76.5299 15.6921 76.6112 16.1661 76.3538 16.5221C76.2559 16.6562 76.1333 16.7709 75.9925 16.8604C75.6154 17.0985 75.0893 17.2587 74.7415 16.9872C74.6237 16.879 74.536 16.7428 74.487 16.5916C74.4379 16.4404 74.4292 16.2793 74.4615 16.1238C74.5292 15.8141 74.6183 15.5093 74.728 15.2115C74.9267 14.5217 74.667 13.7451 74.8838 13.0953C75.1108 12.5102 75.4194 11.959 75.8006 11.4576Z" fill="#001C36"/>
<path d="M78.6614 27.1563C78.6275 27.3185 78.6449 27.487 78.7111 27.6392C78.7782 27.7428 78.8696 27.8291 78.9776 27.8907C79.7369 28.3568 80.6006 28.6326 81.493 28.694C81.6145 28.696 81.7337 28.7265 81.8408 28.783C82.053 28.9209 82.0666 29.228 81.9875 29.4728C81.8822 29.7037 81.8275 29.9539 81.8272 30.2071C81.8927 30.6722 82.4527 30.8747 82.9246 30.9436C83.5863 31.026 84.3111 30.9837 84.835 30.5765C85.1898 30.2575 85.4603 29.858 85.623 29.4127C86.9191 26.4777 87.373 23.2333 88.6849 20.3072C88.7843 20.1161 88.8507 19.9101 88.8814 19.6975C88.8952 19.5911 88.8799 19.4829 88.837 19.3843C88.7942 19.2857 88.7253 19.2002 88.6375 19.1367C88.3936 18.9876 88.0143 19.0722 87.8494 18.8385C87.7682 18.7206 87.7772 18.5604 87.7049 18.4358C87.5536 18.171 87.1562 18.2133 86.8853 18.0597C86.673 17.9485 86.5262 17.7193 86.2891 17.6748C86.1727 17.6683 86.0564 17.6886 85.9494 17.7342C85.8424 17.7798 85.7476 17.8493 85.6727 17.9373C84.9027 18.6449 84.4985 19.6485 84.0695 20.5964C83.4144 22.0495 82.6474 23.451 81.7753 24.7887C81.8769 24.633 81.2876 23.4536 81.0572 23.4024C80.653 23.3223 80.136 24.021 79.9169 24.2814C79.2296 25.1026 78.7941 26.0999 78.6614 27.1563Z" fill="#F4B30C"/>
<path opacity="0.1" d="M86.8644 18.2667C86.7022 18.2693 86.5427 18.3079 86.3977 18.3796C86.2527 18.4512 86.1259 18.5541 86.0267 18.6805C85.785 18.9898 85.7376 19.3993 85.6767 19.7931C85.4711 21.041 85.0193 22.237 84.3467 23.3134" fill="#001C36"/>
<path opacity="0.1" d="M88.0166 19.1545C87.7927 19.1595 87.5739 19.2218 87.3819 19.3353C87.1899 19.4488 87.0312 19.6097 86.9214 19.8021C86.7719 20.1521 86.679 20.523 86.6459 20.9013C86.4523 21.7401 86.0789 22.5284 85.5508 23.2133" fill="#001C36"/>
<path d="M141.681 62.6572V59.8935C141.68 57.859 140.86 55.9081 139.4 54.4697C137.94 53.0313 135.96 52.2233 133.895 52.2233H23.1402C21.0757 52.2233 19.0957 53.0313 17.6357 54.4697C16.1756 55.9081 15.3551 57.859 15.3545 59.8935V64.9892L141.681 62.6572Z" fill="#33323D"/>
<path d="M53.9518 48.9834C53.9518 48.9834 53.6357 68.3115 57.1131 74.6711C60.5905 81.0308 62.0808 108.697 62.0808 108.697C62.0808 108.697 98.5347 112.413 123.938 104.246C149.341 96.0798 203.394 92.7398 203.394 92.7398L194.285 32.2387C194.285 32.2387 149.284 29.3949 123.685 41.4266C98.0853 53.4583 53.9518 48.9834 53.9518 48.9834Z" fill="#32D3CA"/>
<path opacity="0.1" d="M53.9518 48.9834C53.9518 48.9834 53.6357 68.3115 57.1131 74.6711C60.5905 81.0308 62.0808 108.697 62.0808 108.697C62.0808 108.697 98.5347 112.413 123.938 104.246C149.341 96.0798 203.394 92.7398 203.394 92.7398L194.285 32.2387C194.285 32.2387 149.284 29.3949 123.685 41.4266C98.0853 53.4583 53.9518 48.9834 53.9518 48.9834Z" fill="#001C36"/>
<path d="M62.0193 56.044C62.0193 56.044 60.879 71.992 63.7399 77.0877C66.6009 82.1834 66.7341 104.932 66.7341 104.932C66.7341 104.932 99.5412 106.431 122.878 98.6032C146.215 90.7749 195.255 85.697 195.255 85.697L189.682 36.2196C189.682 36.2196 149.105 35.808 125.423 46.8272C101.741 57.8464 62.0193 56.044 62.0193 56.044Z" fill="#32D3CA"/>
<path opacity="0.1" d="M125.063 89.5443C129.731 88.9713 132.504 80.5089 131.257 70.643C130.01 60.777 125.215 53.2436 120.547 53.8166C115.879 54.3895 113.106 62.8519 114.353 72.7179C115.6 82.5838 120.395 90.1172 125.063 89.5443Z" fill="#001C36"/>
<path opacity="0.2" d="M169.613 2.76593C169.613 2.76593 125.895 13.6694 105.279 32.8618C84.6633 52.0542 41.2637 61.1419 41.2637 61.1419C41.2637 61.1419 46.981 79.6311 52.2694 84.6333C57.5577 89.6356 67.588 115.519 67.588 115.519C67.588 115.519 103.439 108.029 125.071 92.5684C146.703 77.1077 197.119 57.5816 197.119 57.5816L169.613 2.76593Z" fill="#001C36"/>
<path d="M40.6064 58.3737C40.6064 58.3737 46.3216 76.8652 51.6054 81.8674C56.8892 86.8697 66.924 112.751 66.924 112.751C66.924 112.751 102.779 105.263 124.414 89.8025C146.048 74.3418 196.459 54.8223 196.459 54.8223L168.954 0C168.954 0 125.238 10.9035 104.622 30.0959C84.0061 49.2882 40.6064 58.3737 40.6064 58.3737Z" fill="#32D3CA"/>
<path opacity="0.1" d="M40.6064 58.3737C40.6064 58.3737 46.3216 76.8652 51.6054 81.8674C56.8892 86.8697 66.924 112.751 66.924 112.751C66.924 112.751 102.779 105.263 124.414 89.8025C146.048 74.3418 196.459 54.8223 196.459 54.8223L168.954 0C168.954 0 125.238 10.9035 104.622 30.0959C84.0061 49.2882 40.6064 58.3737 40.6064 58.3737Z" fill="black"/>
<path d="M50.4766 62.655C50.4766 62.655 54.3581 78.1803 58.6688 82.1634C62.9794 86.1465 70.1848 107.753 70.1848 107.753C70.1848 107.753 101.874 99.2574 121.648 84.749C141.422 70.2407 186.519 50.5989 186.519 50.5989L165.811 5.17804C165.811 5.17804 127.065 17.0539 107.955 34.7043C88.8453 52.3546 50.4766 62.655 50.4766 62.655Z" fill="#32D3CA"/>
<path opacity="0.1" d="M144.671 65.3697V142.139C144.671 143.011 144.496 143.874 144.158 144.68C143.819 145.485 143.323 146.217 142.697 146.834C142.071 147.45 141.328 147.939 140.511 148.272C139.693 148.606 138.817 148.777 137.933 148.777H22.0948C20.3088 148.776 18.5961 148.077 17.3334 146.832C16.0707 145.587 15.3613 143.899 15.3613 142.139V57.6305C18.6807 58.8455 18.6807 58.8455 22.0948 58.7431H137.933C139.717 58.7431 141.429 59.4408 142.692 60.6832C143.956 61.9255 144.667 63.611 144.671 65.3697Z" fill="#001C36"/>
<path d="M117 66C121.971 66 126 61.9706 126 57C126 52.0294 121.971 48 117 48C112.029 48 108 52.0294 108 57C108 61.9706 112.029 66 117 66Z" fill="#001C36"/>
<path d="M117 64.25C121.004 64.25 124.25 61.0041 124.25 57C124.25 52.9959 121.004 49.75 117 49.75C112.996 49.75 109.75 52.9959 109.75 57C109.75 61.0041 112.996 64.25 117 64.25Z" fill="#32D3CA"/>
<path d="M117 63.5C120.59 63.5 123.5 60.5899 123.5 57C123.5 53.4101 120.59 50.5 117 50.5C113.41 50.5 110.5 53.4101 110.5 57C110.5 60.5899 113.41 63.5 117 63.5Z" fill="#001C36"/>
<path d="M117 52L117.766 55.152L120.536 53.4645L118.848 56.2345L122 57L118.848 57.7655L120.536 60.5355L117.766 58.848L117 62L116.235 58.848L113.465 60.5355L115.152 57.7655L112 57L115.152 56.2345L113.465 53.4645L116.235 55.152L117 52Z" fill="#CCD6DD"/>
<path d="M116.672 58.374L121.06 61.0645L118.371 56.6755L116.672 58.374Z" fill="white"/>
<path d="M117.328 55.6335L112.939 52.943L115.629 57.3325L117.328 55.6335Z" fill="#DD2E44"/>
<path d="M117 58.5315C117.844 58.5315 118.528 57.8476 118.528 57.004C118.528 56.1604 117.844 55.4765 117 55.4765C116.157 55.4765 115.473 56.1604 115.473 57.004C115.473 57.8476 116.157 58.5315 117 58.5315Z" fill="#8899A6"/>
<path d="M117 57.828C117.455 57.828 117.824 57.4591 117.824 57.004C117.824 56.5489 117.455 56.18 117 56.18C116.545 56.18 116.176 56.5489 116.176 57.004C116.176 57.4591 116.545 57.828 117 57.828Z" fill="#F5F8FA"/>
<path d="M144.671 66.3466V143.116C144.67 144.877 143.96 146.565 142.696 147.81C141.433 149.055 139.719 149.754 137.933 149.754H22.0948C20.3088 149.753 18.5961 149.054 17.3334 147.809C16.0707 146.564 15.3613 144.876 15.3613 143.116V58.6052C18.6807 59.8179 18.6807 59.8179 22.0948 59.7178H137.933C139.718 59.7178 141.43 60.4158 142.693 61.6586C143.956 62.9015 144.668 64.5875 144.671 66.3466Z" fill="#001C36"/>
<path opacity="0.1" d="M144.341 94.7291V119.28H120.18C116.905 119.236 113.779 117.924 111.479 115.627C109.179 113.329 107.89 110.232 107.89 107.004C107.89 103.777 109.179 100.68 111.479 98.3823C113.779 96.0849 116.905 94.7725 120.18 94.7291H144.341Z" fill="#001C36"/>
<path d="M144.671 94.0749V118.63H120.51C117.235 118.587 114.109 117.274 111.809 114.977C109.509 112.679 108.22 109.582 108.22 106.355C108.22 103.127 109.509 100.03 111.809 97.7326C114.109 95.4352 117.235 94.1228 120.51 94.0793L144.671 94.0749Z" fill="#F4B30C"/>
<path opacity="0.1" d="M121.668 111.792C124.35 111.792 126.525 109.649 126.525 107.006C126.525 104.362 124.35 102.219 121.668 102.219C118.985 102.219 116.811 104.362 116.811 107.006C116.811 109.649 118.985 111.792 121.668 111.792Z" fill="#001C36"/>
<path d="M121.998 111.142C124.68 111.142 126.855 108.999 126.855 106.356C126.855 103.712 124.68 101.569 121.998 101.569C119.315 101.569 117.141 103.712 117.141 106.356C117.141 108.999 119.315 111.142 121.998 111.142Z" fill="#001C36"/>
<path d="M186.609 93.8635C186.801 95.9129 185.227 97.9022 185.685 99.9094C185.785 100.339 185.972 100.744 186.04 101.178C186.23 102.37 185.509 103.499 184.821 104.496L178.905 113.049C178.668 113.425 178.384 113.771 178.06 114.077C176.931 115.07 175.233 114.967 173.747 115.263C172.703 115.472 171.717 115.902 170.857 116.523C170.821 116.553 170.798 116.596 170.793 116.642C170.788 116.688 170.801 116.735 170.83 116.772C171.075 117.101 171.401 117.365 171.776 117.539C172.152 117.713 172.565 117.791 172.979 117.767C173.135 117.969 172.979 118.265 172.754 118.41C172.435 118.632 171.999 118.686 171.936 119.215C171.914 119.4 171.952 119.587 172.045 119.749C172.283 120.109 172.654 120.364 173.079 120.459C175.127 121.076 177.34 119.992 178.873 118.517C180.406 117.041 181.506 115.179 183.01 113.677C183.843 112.847 184.789 112.135 185.647 111.329C187.359 109.723 188.689 107.769 189.974 105.813C190.36 105.223 190.748 104.618 190.911 103.935C191.073 103.252 190.996 102.562 191.179 101.901C191.419 101.033 192.062 100.343 192.597 99.6156C193.647 98.1915 194.347 96.4492 194.21 94.6957C194.072 92.9422 192.968 91.2088 191.288 90.6125C190.767 90.4064 190.193 90.3721 189.651 90.5146C188.962 90.7237 188.454 91.2845 187.984 91.8208L186.855 93.1002C186.574 93.381 186.351 93.7137 186.2 94.0793C186.128 94.2629 186.111 94.4632 186.151 94.6561C186.191 94.8491 186.286 95.0266 186.426 95.1675" fill="#FBBEBE"/>
<path opacity="0.05" d="M186.609 93.8635C186.801 95.9129 185.227 97.9022 185.685 99.9094C185.785 100.339 185.972 100.744 186.04 101.178C186.23 102.37 185.509 103.499 184.821 104.496L178.905 113.049C178.668 113.425 178.384 113.771 178.06 114.077C176.931 115.07 175.233 114.967 173.747 115.263C172.703 115.472 171.717 115.902 170.857 116.523C170.821 116.553 170.798 116.596 170.793 116.642C170.788 116.688 170.801 116.735 170.83 116.772C171.075 117.101 171.401 117.365 171.776 117.539C172.152 117.713 172.565 117.791 172.979 117.767C173.135 117.969 172.979 118.265 172.754 118.41C172.435 118.632 171.999 118.686 171.936 119.215C171.914 119.4 171.952 119.587 172.045 119.749C172.283 120.109 172.654 120.364 173.079 120.459C175.127 121.076 177.34 119.992 178.873 118.517C180.406 117.041 181.506 115.179 183.01 113.677C183.843 112.847 184.789 112.135 185.647 111.329C187.359 109.723 188.689 107.769 189.974 105.813C190.36 105.223 190.748 104.618 190.911 103.935C191.073 103.252 190.996 102.562 191.179 101.901C191.419 101.033 192.062 100.343 192.597 99.6156C193.647 98.1915 194.347 96.4492 194.21 94.6957C194.072 92.9422 192.968 91.2088 191.288 90.6125C190.767 90.4064 190.193 90.3721 189.651 90.5146C188.962 90.7237 188.454 91.2845 187.984 91.8208L186.855 93.1002C186.574 93.381 186.351 93.7137 186.2 94.0793C186.128 94.2629 186.111 94.4632 186.151 94.6561C186.191 94.8491 186.286 95.0266 186.426 95.1675" fill="#001C36"/>
<path d="M191.087 146.623C189.796 147.4 188.186 147.446 186.684 147.266C186.442 147.237 186.156 147.219 186.007 147.404C185.781 147.671 186.047 148.072 186.323 148.279C187.208 148.934 188.249 149.356 189.346 149.505C190.326 149.642 191.315 149.706 192.304 149.698C195.014 149.745 197.724 149.789 200.39 149.407C200.548 149.395 200.702 149.351 200.842 149.278C201.014 149.159 201.133 148.98 201.176 148.777C201.359 148.092 201.007 147.357 200.474 146.881C199.941 146.405 199.257 146.14 198.589 145.884L196.24 144.983C195.689 144.772 194.806 144.211 194.208 144.255C193.083 144.336 192.02 146.085 191.087 146.623Z" fill="#001C36"/>
<path opacity="0.05" d="M191.087 146.623C189.796 147.4 188.186 147.446 186.684 147.266C186.442 147.237 186.156 147.219 186.007 147.404C185.781 147.671 186.047 148.072 186.323 148.279C187.208 148.934 188.249 149.356 189.346 149.505C190.326 149.642 191.315 149.706 192.304 149.698C195.014 149.745 197.724 149.789 200.39 149.407C200.548 149.395 200.702 149.351 200.842 149.278C201.014 149.159 201.133 148.98 201.176 148.777C201.359 148.092 201.007 147.357 200.474 146.881C199.941 146.405 199.257 146.14 198.589 145.884L196.24 144.983C195.689 144.772 194.806 144.211 194.208 144.255C193.083 144.336 192.02 146.085 191.087 146.623Z" fill="#001C36"/>
<path d="M192.733 115.902C191.755 117.184 190.744 118.663 190.985 120.25C191.116 121.104 191.602 121.859 191.959 122.649C192.442 123.721 192.695 124.874 192.943 126.022C193.309 127.7 193.677 129.382 193.901 131.087C194.156 133.011 192.957 138.581 192.846 140.519C192.819 140.987 192.762 141.492 192.433 141.828C192.304 141.961 192.132 142.068 192.074 142.242C192.039 142.409 192.067 142.583 192.153 142.731C192.704 143.955 193.831 144.867 195.088 145.388C196.346 145.909 199.379 146.808 200.749 146.854C200.93 146.874 201.113 146.85 201.282 146.785C201.464 146.676 201.608 146.513 201.693 146.32C202.675 144.469 201.731 137.887 201.745 135.797C201.759 134.055 202.176 132.324 202.099 130.584C202.036 129.186 201.648 127.82 201.519 126.427C201.293 124.144 201.718 121.85 202.145 119.593C202.47 117.862 202.797 116.131 203.215 114.422C203.47 113.378 203.766 112.326 204.344 111.42C204.796 110.702 205.43 110.101 205.956 109.418C207.417 107.531 208.065 105.154 207.763 102.8C207.731 102.577 204.376 103.639 204.08 103.766C202.873 104.269 201.762 104.973 200.797 105.846C200.02 106.576 199.408 107.551 198.728 108.367C197.766 109.523 196.816 110.687 195.879 111.859C194.808 113.198 193.76 114.546 192.733 115.902Z" fill="#001C36"/>
<path opacity="0.05" d="M192.733 115.824C191.755 117.106 190.744 118.588 190.985 120.172C191.116 121.029 191.602 121.783 191.959 122.573C192.442 123.643 192.695 124.798 192.943 125.944C193.309 127.624 193.677 129.307 193.901 131.009C194.156 132.936 192.957 138.503 192.846 140.441C192.819 140.909 192.762 141.416 192.433 141.752C192.304 141.883 192.132 141.99 192.074 142.164C192.039 142.331 192.067 142.505 192.153 142.653C192.704 143.879 193.831 144.789 195.088 145.324C196.346 145.858 199.379 146.323 200.749 146.367C200.93 146.387 201.113 146.363 201.282 146.298C201.465 146.19 201.608 146.028 201.693 145.835C202.675 143.984 201.731 137.825 201.745 135.733C201.759 133.988 202.176 132.259 202.1 130.517C202.036 129.12 201.648 127.753 201.519 126.363C201.293 124.077 201.718 121.783 202.145 119.527C202.47 117.798 202.797 116.067 203.215 114.355C203.47 113.312 203.766 112.259 204.344 111.354C204.796 110.635 205.43 110.034 205.956 109.351C207.417 107.464 208.066 105.087 207.763 102.733C207.731 102.511 204.376 103.572 204.08 103.699C202.873 104.204 201.763 104.908 200.797 105.782C200.02 106.509 199.408 107.484 198.728 108.301C197.766 109.456 196.816 110.621 195.879 111.794C194.808 113.123 193.76 114.467 192.733 115.824Z" fill="#001C36"/>
<path d="M181.854 87.673C184.881 87.673 187.335 85.2551 187.335 82.2724C187.335 79.2897 184.881 76.8718 181.854 76.8718C178.828 76.8718 176.374 79.2897 176.374 82.2724C176.374 85.2551 178.828 87.673 181.854 87.673Z" fill="#FBBEBE"/>
<path d="M186.79 82.0454C187.297 82.8413 187.96 83.5285 188.742 84.0661C189.524 84.6036 190.407 84.9804 191.34 85.1741L190.927 86.6538C190.213 89.195 189.412 91.8831 187.42 93.6454C187.646 92.7843 187.357 91.8653 186.865 91.1176C186.372 90.3699 185.682 89.7825 185.004 89.2017L181.85 86.5092C181.759 86.4362 181.682 86.3471 181.624 86.2466C181.546 86.0568 181.546 85.8446 181.624 85.6547C182.026 84.422 183.173 83.652 184.108 82.8198C184.577 82.3895 184.996 81.9088 185.356 81.3868C185.986 80.5011 186.377 81.3912 186.79 82.0454Z" fill="#FBBEBE"/>
<path d="M174.635 76.8429L174.51 75.8282C175.375 76.0507 176.197 75.3253 176.75 74.5754C177.304 73.8255 177.816 72.9421 178.659 72.6284C179.681 72.2501 180.765 72.8509 181.743 73.3583C182.838 73.9568 184.039 74.3421 185.281 74.4931C185.48 74.4996 185.676 74.531 185.866 74.5866C186.503 74.8091 186.806 75.5968 186.898 76.3111C186.991 77.0254 186.966 77.7842 187.28 78.4206C187.506 78.9035 187.926 79.2617 188.183 79.7379C188.86 81.0152 188.206 82.762 188.912 84.0148L187.156 82.4282C186.995 82.2835 186.769 82.1322 186.591 82.2546C186.451 82.3525 186.44 82.5639 186.383 82.733C186.214 83.227 185.586 83.3739 185.132 83.1781C184.678 82.9823 184.347 82.5572 184.003 82.1701C183.227 81.2666 182.301 80.4722 181.217 80.0873C180.742 79.9122 180.234 79.8388 179.728 79.8718C179.222 79.9048 178.729 80.0435 178.281 80.2786C177.462 80.7348 176.861 81.7985 175.856 81.8363C174.479 81.8875 173.905 79.3596 173.269 78.3605C173.502 78.1877 173.665 77.9397 173.732 77.6598C173.798 77.3798 173.762 77.0859 173.63 76.8296C173.722 76.7917 174.614 76.6872 174.635 76.8429Z" fill="#001C36"/>
<path d="M106.851 45.2695C106.41 45.6555 106.003 46.0767 105.634 46.529C105.261 46.9875 105.063 47.5596 105.074 48.1467C105.076 48.3169 105.131 48.4825 105.232 48.6207C105.283 48.6868 105.354 48.7354 105.435 48.7598C105.516 48.7841 105.603 48.7829 105.683 48.7564C105.774 48.7108 105.852 48.6435 105.909 48.5606C106.148 48.278 106.401 48.0076 106.668 47.7506C106.765 47.6549 106.894 47.5548 107.025 47.5904C107.083 47.6109 107.136 47.6453 107.178 47.6905C107.33 47.8199 107.441 47.99 107.497 48.1801C107.576 48.5205 107.375 48.861 107.147 49.128C106.918 49.395 106.65 49.6509 106.557 49.9869C106.522 50.0757 106.522 50.1741 106.557 50.2629C106.601 50.3271 106.662 50.3779 106.733 50.4097C107.057 50.5852 107.415 50.6885 107.784 50.7123C108.152 50.7361 108.521 50.6799 108.865 50.5477C109.316 50.3674 109.718 50.0581 110.184 49.8979C110.385 49.8436 110.58 49.769 110.766 49.6754C110.899 49.5881 111.013 49.4758 111.102 49.3448C111.191 49.2138 111.252 49.0667 111.283 48.9122C111.342 48.6033 111.353 48.2875 111.317 47.9753C111.261 46.7665 110.998 45.5757 110.54 44.4529C110.514 44.3804 110.469 44.316 110.409 44.2659C110.341 44.2251 110.263 44.2043 110.184 44.2059C109.606 44.1458 108.657 43.8543 108.099 44.0657C107.904 44.1711 107.736 44.3187 107.607 44.4974C107.503 44.6109 106.851 45.1204 106.851 45.2695Z" fill="#A1616A"/>
<path d="M106.668 44.7666C106.668 44.2236 105.991 42.913 107.068 42.8262C107.068 42.2454 106.235 41.885 106.39 41.2686C106.44 41.0639 106.616 40.897 106.636 40.6878C106.704 40.0937 105.616 39.771 105.796 39.2014C105.864 38.9788 106.104 38.8498 106.155 38.6295C106.277 38.1155 105.345 37.8863 105.327 37.3589C105.327 37.1809 105.428 37.014 105.419 36.836C105.419 36.6134 105.223 36.4443 105.115 36.2507C104.832 35.7545 104.97 34.9868 104.455 34.7309C104.796 34.7599 104.907 34.2614 104.767 33.9566C104.627 33.6517 104.34 33.3869 104.338 33.0487C104.355 32.9261 104.355 32.8019 104.338 32.6793C104.243 32.3544 103.703 32.3277 103.613 32.0117C103.601 31.8904 103.597 31.7686 103.602 31.6468C103.566 31.3954 103.304 31.2351 103.057 31.1639C102.802 31.1211 102.556 31.0345 102.33 30.908C102.172 30.7901 101.989 30.5943 101.82 30.6855C101.757 30.7233 101.725 30.7945 101.678 30.8479C101.475 31.0816 101.086 30.9792 100.831 30.8079C100.077 30.3028 99.702 29.3971 99.5417 28.5137C99.3813 27.6303 99.3859 26.718 99.1849 25.8435C99.1236 25.5709 99.0421 25.3032 98.941 25.0424C98.8552 24.8199 98.5797 24.4705 98.5617 24.2458C98.521 23.734 99.5959 24.0833 100.005 24.1345C100.401 24.1727 100.794 24.2472 101.176 24.357C101.585 24.5091 101.985 24.6822 102.376 24.8755C104.006 25.5853 105.975 25.6721 107.285 26.8648C107.716 27.2565 108.079 27.7705 108.639 27.9485C108.896 27.997 109.15 28.0617 109.398 28.1421C110.019 28.4292 110.116 29.2414 110.455 29.8288C110.561 29.9839 110.654 30.1477 110.733 30.3184C110.798 30.5196 110.828 30.7302 110.823 30.9414L110.87 32.4835C110.947 35.0669 111.024 37.6571 110.744 40.225C110.654 41.0728 110.518 41.945 110.773 42.7595C110.841 42.982 110.936 43.1911 110.999 43.4159C111.055 43.6794 111.084 43.9478 111.085 44.217L111.121 45.2161C111.133 45.2938 111.116 45.3733 111.071 45.4386C111.033 45.4688 110.989 45.4903 110.942 45.5014C110.895 45.5126 110.846 45.5132 110.798 45.5031C109.387 45.3785 107.96 44.5952 106.627 45.0692" fill="#001C36"/>
<path d="M171.072 121.536C180.295 121.536 187.772 120.471 187.772 119.157C187.772 117.844 180.295 116.779 171.072 116.779C161.848 116.779 154.371 117.844 154.371 119.157C154.371 120.471 161.848 121.536 171.072 121.536Z" fill="#001C36"/>
<path d="M185.44 119.273C185.146 118.034 184.963 116.945 184.963 116.945C184.963 116.945 185.031 115.597 184.417 114.585V114.246V111.754C184.592 111.302 184.806 110.865 185.056 110.448C185.508 109.665 185.056 106.794 185.056 106.794C185.056 106.794 183.369 102.746 183.778 100.179C184.187 97.6107 180.314 88.7766 180.314 88.7766C180.338 87.9247 180.46 87.0781 180.678 86.2533C180.719 86.0798 180.736 85.9016 180.727 85.7237C180.727 85.7014 180.727 85.6814 180.727 85.6591C180.727 85.6369 180.727 85.6725 180.727 85.6792C180.669 83.9858 179.309 80.8126 179.309 80.8126L179.492 74.7645C179.492 74.7645 180.359 71.2042 178.946 66.4089C178.451 64.7378 178.135 63.4004 177.934 62.3679C177.911 62.2522 177.889 62.1454 177.871 62.0319C180.781 61.5869 183.006 61.2309 183.006 61.2309C183.006 61.2309 181.317 54.2682 180.176 53.0488C179.036 51.8294 178.124 47.9998 178.124 47.9998C178.124 47.9998 177.53 43.0843 178.49 41.6469C179.449 40.2094 179.585 37.7305 179.585 37.7305C179.585 37.7305 181.773 36.1729 182.048 35.4675C182.324 34.7621 182.778 33.2044 182.778 32.3789C182.778 31.5533 182.504 30.8213 182.595 30.3762C182.685 29.9312 181.956 28.2867 182.321 27.5035C182.416 27.2629 182.465 27.0072 182.466 26.7491C182.467 26.7417 182.467 26.7343 182.466 26.7269C182.469 26.0414 182.405 25.3573 182.274 24.6841C181.641 24.1575 180.902 23.7685 180.106 23.5426L180.059 23.3557L179.935 22.8662C179.865 22.821 179.794 22.7794 179.72 22.7415V22.5635L179.7 21.8559L180.043 20.2671C180.72 17.5034 176.974 17.0918 176.974 17.0918C176.747 16.6678 176.369 16.3414 175.913 16.175C175.161 15.9146 175.789 20.3316 176.139 20.6254C176.403 20.8479 177.221 22.2231 177.616 22.904L177.679 23.0152C177.617 23.07 177.56 23.1296 177.507 23.1933L177.65 24.1523L177.672 24.2992C177.424 24.603 177.222 24.9411 177.074 25.3028C177.074 25.3028 177.751 26.0415 177.622 26.8604C177.494 27.6793 177.832 28.7184 177.848 28.7741C177.808 28.7273 177.327 28.2155 176.846 28.3401C176.365 28.4648 175.021 28.8631 175.021 28.8631C175.021 28.8631 174.019 29.0366 174.118 29.2547C174.217 29.4728 173.441 30.4296 173.441 30.4296L170.744 27.9107C170.717 27.835 170.688 27.7594 170.665 27.6882C170.555 27.325 170.48 26.9525 170.44 26.5756C170.733 26.5068 171.022 26.4168 171.302 26.3063C171.585 26.2105 171.841 26.0486 172.047 25.8346C172.321 25.5164 172.372 25.0847 172.483 24.6886C172.695 23.9142 173.161 23.2266 173.483 22.4901C174.03 21.2455 174.206 19.8733 173.992 18.5337C173.95 18.1209 173.808 17.724 173.578 17.3766C173.138 16.7802 172.339 16.5377 171.758 16.0615C171.178 15.5853 170.803 14.8577 170.126 14.5038C169.514 14.1812 168.771 14.219 168.08 14.3303C166.73 14.5496 165.434 15.0144 164.257 15.701C163.864 15.9235 163.431 16.1972 162.979 16.1149C162.591 16.0459 162.302 15.7411 162.058 15.4473C162.06 15.4352 162.064 15.4233 162.069 15.4117C162.058 15.4009 162.048 15.389 162.04 15.3761C161.754 16.0011 161.611 16.6801 161.62 17.3655C161.62 17.4723 161.62 17.588 161.633 17.6837V17.7949C161.633 17.8261 161.633 17.8572 161.633 17.8862C161.633 17.9336 161.626 17.9808 161.613 18.0263C161.556 18.1625 161.47 18.2847 161.36 18.3846C161.277 18.4774 161.202 18.5763 161.134 18.6805C161.134 18.6449 161.157 18.6093 161.17 18.5715C160.998 18.8193 160.901 19.1103 160.89 19.4104C160.878 19.6289 160.95 19.8439 161.094 20.0112C161.229 20.1406 161.376 20.2568 161.534 20.3584C161.48 20.6521 161.453 20.95 161.453 21.2484C161.458 22.1333 161.694 23.0019 162.14 23.7702C162.585 24.5385 163.224 25.1806 163.995 25.6343C164.027 25.7077 164.056 25.7834 164.085 25.8568C164.431 26.7469 164.691 27.7927 164.575 28.7496C164.575 28.8186 164.555 28.8898 164.544 28.9588C164.533 29.0277 164.476 29.0322 164.447 29.07C164.447 29.07 159.992 29.1145 158.944 28.1799C157.896 27.2453 156.297 30.4652 156.297 30.4652C156.297 30.4652 154.701 30.7701 154.38 30.4652C154.06 30.1604 152.192 30.4229 152.192 30.4229C151.427 29.7524 150.432 29.3944 149.408 29.4216C148.788 28.9572 148.104 28.5825 147.376 28.309L147.326 28.2912C147.005 28.1758 146.662 28.1332 146.321 28.1666C146.321 28.1666 144.131 26.3864 143.492 25.4251C142.853 24.4639 139.811 20.9146 139.798 20.8991V20.7277L139.764 20.2115C139.674 20.2255 139.582 20.2329 139.491 20.2337C139.475 20.1826 139.452 20.1225 139.43 20.0535C139.255 19.5499 139.039 19.0611 138.784 18.5915C138.784 18.5915 138.784 17.9396 138.976 17.7749C139.168 17.6102 138.897 15.2181 138.897 15.2181C138.897 15.2181 136.923 10.672 135.155 14.0655C135.155 14.0655 131.813 16.2618 134.618 18.8207C134.618 18.8207 135.747 19.3548 135.896 19.7776C136 20.0513 136.379 20.819 136.634 21.3352L136.75 21.5577L136.718 21.5844L136.759 22.0117L136.777 22.1763C136.248 22.4723 135.889 22.766 135.977 22.9863C136.133 23.3633 136.24 23.758 136.296 24.1612C136.296 24.1612 140.175 28.9499 140.676 30.9948C140.676 30.9948 151.079 37.0874 154.5 37.5213L153.895 40.5587C153.807 41.3829 153.762 42.2111 153.759 43.0398C153.805 43.6918 153.348 46.6513 153.348 46.6513C153.348 46.6513 152.755 51.0038 152.253 51.6135C151.752 52.2232 151.842 54.8334 151.842 54.8334C151.724 56.083 151.497 57.3202 151.165 58.5317C150.664 60.185 151.027 62.2322 151.027 62.2322C151.027 62.2322 149.295 66.1486 153.446 63.4939C153.446 63.4939 155.478 63.3693 157.831 63.2892C157.831 63.3648 157.831 63.4427 157.831 63.5117C157.831 63.8099 157.831 64.1325 157.815 64.4708C157.783 66.7138 157.77 69.8112 157.874 72.1433C158.056 76.2777 159.335 84.4598 159.335 84.4598V88.5786C159.252 88.9649 159.211 89.3587 159.213 89.7535C159.186 91.2027 159.577 92.6296 160.342 93.8679L160.662 96.6094C160.662 96.6094 161.412 98.4162 161.425 99.5021C161.423 99.5896 161.412 99.6767 161.394 99.7625C161.365 99.9007 161.353 100.042 161.358 100.183C161.315 101.429 162.076 104.411 162.076 104.411C162.076 104.411 162.121 107.413 162.577 107.589C162.968 107.738 162.055 109.317 161.785 109.771C161.777 109.744 161.772 109.715 161.769 109.687L161.712 109.776C161.618 110.019 161.57 110.277 161.57 110.537C161.544 110.742 161.578 110.95 161.668 111.137C161.757 111.323 161.899 111.481 162.076 111.592C162.943 112.115 163.408 112.548 162.672 112.722C162.401 112.763 162.133 112.819 161.868 112.889C161.868 112.856 161.841 112.82 161.83 112.789C161.726 112.829 161.639 112.903 161.584 112.999C161.53 113.094 161.51 113.206 161.529 113.314C161.536 113.667 161.628 114.013 161.798 114.324C162.527 115.935 163.033 116.549 163.033 116.549L163.383 116.512C163.332 116.643 163.263 116.768 163.18 116.883C163.047 117.07 162.87 117.222 162.665 117.328C162.474 117.441 162.261 117.513 162.04 117.54C161.792 117.548 161.55 117.607 161.327 117.713C161.104 117.82 160.907 117.971 160.748 118.158C160.296 118.739 160.007 119.529 160.906 120.223L164.169 121.336C164.169 121.336 169.783 122.055 169.484 120.813C169.186 119.571 169.006 118.485 169.006 118.485C169.03 117.727 168.875 116.974 168.554 116.285C168.495 116.172 168.429 116.064 168.355 115.96L168.554 115.94C168.554 115.94 168.965 113.196 169.512 112.675C169.638 112.555 169.667 112.453 169.638 112.39C169.694 112.241 169.55 112.155 169.367 112.103L169.326 112.212C169.148 112.174 168.965 112.154 168.782 112.152C168.782 112.152 168.599 110.717 169.193 110.194C169.241 110.135 169.276 110.066 169.296 109.992C169.316 109.919 169.32 109.842 169.308 109.767C169.313 109.57 169.292 109.373 169.245 109.182C169.239 109.194 169.232 109.206 169.225 109.217C168.927 107.913 167.915 105.842 167.915 105.842C167.915 105.842 167.87 104.538 168.236 104.015C168.602 103.492 168.188 96.9209 168.188 96.9209C168.188 96.9209 168.326 93.7455 167.915 92.2658C167.504 90.786 168.416 89.0437 168.416 89.0437C168.416 89.0437 168.416 89.0103 168.416 88.9502V88.928L168.364 88.4273C168.363 88.4376 168.363 88.4481 168.364 88.4584C168.272 87.6173 168.098 86.093 167.969 85.3899C167.786 84.3885 168.017 79.6044 168.017 79.6044L168.836 77.5572L170.297 81.0841L171.849 85.7837C171.849 85.7837 172.616 86.7762 172.634 87.7864C172.634 87.8354 172.634 87.8843 172.634 87.9333C172.622 88.0374 172.616 88.1422 172.616 88.247C172.589 88.8408 172.754 89.4278 173.088 89.9226C173.088 89.9226 173.499 92.1478 174.138 92.7063C174.777 93.2649 174.777 94.3597 174.777 94.3597C174.777 94.3597 175.552 97.5818 175.906 98.1425C176.213 98.6187 176.229 99.9227 176.227 100.33C176.227 100.403 176.227 100.446 176.227 100.446C176.227 100.446 176.335 101.598 176.331 102.564C176.331 102.684 176.331 102.8 176.331 102.909C176.332 102.901 176.332 102.893 176.331 102.884C176.331 103.148 176.299 103.411 176.236 103.668L176.222 103.712C176.222 103.657 176.222 103.603 176.238 103.55C176.08 104.206 176.004 104.878 176.012 105.552C175.992 106.71 176.171 108.08 176.882 108.89C178.115 110.283 178.889 110.11 178.889 110.11C178.889 110.11 178.298 111.85 177.566 112.199C177.538 112.212 177.512 112.228 177.489 112.248C177.489 112.212 177.476 112.179 177.471 112.146C177.39 112.233 177.327 112.335 177.288 112.447C177.25 112.559 177.235 112.678 177.245 112.795C177.193 113.561 177.683 114.798 178.149 115.374C178.321 115.541 178.533 115.663 178.765 115.731C178.728 115.756 178.69 115.779 178.65 115.799C178.569 115.843 178.485 115.883 178.399 115.917C178.28 115.967 178.155 115.999 178.027 116.013C177.779 116.02 177.536 116.078 177.313 116.185C177.09 116.292 176.893 116.444 176.735 116.632C176.283 117.21 175.994 118 176.893 118.694L180.156 119.807C180.156 119.807 185.733 120.512 185.44 119.273Z" fill="url(#paint0_linear)"/>
<path d="M164.008 121.329L160.847 120.217C159.976 119.522 160.253 118.732 160.694 118.152C160.845 117.966 161.035 117.815 161.251 117.709C161.467 117.602 161.703 117.542 161.945 117.533C162.159 117.506 162.364 117.434 162.547 117.322C162.748 117.214 162.92 117.062 163.049 116.877C163.279 116.516 163.404 116.099 163.408 115.673C163.408 115.673 166.876 114.671 167.825 115.673C167.994 115.854 168.135 116.059 168.245 116.28C168.56 116.971 168.714 117.723 168.696 118.481C168.696 118.481 168.872 119.567 169.159 120.808C169.446 122.05 164.008 121.329 164.008 121.329Z" fill="#2D293D"/>
<path d="M179.463 119.794L176.301 118.681C175.43 117.987 175.707 117.197 176.148 116.618C176.298 116.432 176.488 116.281 176.703 116.174C176.919 116.067 177.155 116.008 177.396 116C177.521 115.987 177.643 115.955 177.758 115.904C177.841 115.869 177.923 115.83 178.002 115.786C178.884 115.308 178.862 114.133 178.862 114.133C178.862 114.133 182.328 113.132 183.279 114.133C183.406 114.268 183.517 114.418 183.611 114.578C184.204 115.59 184.139 116.941 184.139 116.941C184.139 116.941 184.315 118.029 184.591 119.269C184.866 120.508 179.463 119.794 179.463 119.794Z" fill="#2D293D"/>
<path opacity="0.1" d="M167.827 115.67C167.996 115.852 168.138 116.056 168.247 116.278L163.054 116.872C163.284 116.511 163.409 116.095 163.413 115.668C163.413 115.668 166.879 114.669 167.827 115.67Z" fill="#001C36"/>
<path opacity="0.1" d="M183.616 114.582V115.541C182.807 116.852 178.898 116.565 177.763 115.909C177.846 115.874 177.928 115.834 178.007 115.791C178.889 115.312 178.867 114.137 178.867 114.137C178.867 114.137 182.333 113.136 183.284 114.137C183.411 114.273 183.522 114.422 183.616 114.582Z" fill="#001C36"/>
<path d="M184.232 110.448C183.99 110.866 183.784 111.303 183.616 111.754V115.192C182.73 116.627 178.14 116.149 177.519 115.366C176.898 114.582 176.25 112.544 176.948 112.19C177.645 111.836 178.228 110.101 178.228 110.101C178.228 110.101 177.476 110.274 176.284 108.881C175.092 107.488 175.446 104.4 175.667 103.661C175.889 102.922 175.667 100.441 175.667 100.441C175.667 100.441 175.712 98.6989 175.36 98.1337C175.008 97.5685 174.256 94.3508 174.256 94.3508C174.256 94.3508 174.256 93.2627 173.637 92.6975C173.019 92.1323 172.621 89.9115 172.621 89.9115C172.259 89.3566 172.104 88.6953 172.181 88.0401C172.312 86.952 171.429 85.7771 171.429 85.7771L169.927 81.0753L168.514 77.5505L167.719 79.5955C167.719 79.5955 167.493 84.3819 167.676 85.381C167.859 86.3801 168.128 89.037 168.128 89.037C168.128 89.037 167.245 90.7771 167.642 92.2569C168.04 93.7367 167.895 96.9165 167.895 96.9165C167.895 96.9165 168.293 103.485 167.938 104.008C167.583 104.531 167.629 105.837 167.629 105.837C167.629 105.837 169.435 109.665 168.866 110.188C168.297 110.711 168.469 112.146 168.469 112.146C168.469 112.146 169.704 112.146 169.175 112.669C168.647 113.192 168.247 115.933 168.247 115.933L162.907 116.549C162.907 116.549 162.419 115.942 161.713 114.324C161.006 112.707 161.844 112.889 162.555 112.713C163.266 112.537 162.817 112.106 161.977 111.583C161.137 111.06 161.624 109.885 161.624 109.885C161.624 109.885 162.905 107.753 162.462 107.58C162.02 107.406 161.977 104.402 161.977 104.402C161.977 104.402 161.094 100.842 161.315 99.876C161.536 98.9103 160.608 96.6138 160.608 96.6138L160.299 93.8724C159.354 92.3167 159.009 90.4778 159.328 88.6921V84.4642C159.328 84.4642 158.091 76.2844 157.915 72.15C157.802 69.502 157.833 65.8882 157.869 63.6341C157.892 62.3702 157.915 61.5313 157.915 61.5313L176.991 59.5731C176.991 59.5731 176.972 60.4409 177.336 62.3657C177.532 63.3982 177.837 64.7356 178.316 66.4067C179.684 71.1931 178.847 74.7601 178.847 74.7601L178.668 80.8105C178.668 80.8105 180.346 84.8559 179.994 86.2488C179.781 87.076 179.661 87.9237 179.637 88.7767C179.637 88.7767 183.39 97.6107 182.992 100.179C182.595 102.747 184.228 106.794 184.228 106.794C184.228 106.794 184.675 109.665 184.232 110.448Z" fill="#001C36"/>
<path opacity="0.05" d="M173.325 87.7775L179.133 87.0143C179.133 87.0143 175.843 90.3232 173.325 87.7775Z" fill="#001C36"/>
<path opacity="0.1" d="M178.293 81.4224C178.293 81.4224 178.492 83.4473 177.234 84.2083C177.234 84.2083 179.486 83.8612 178.293 81.4224Z" fill="#001C36"/>
<path opacity="0.1" d="M177.936 74.9827C177.936 74.9827 173.081 78.9213 171.316 78.5942C169.55 78.2671 177.936 74.9827 177.936 74.9827Z" fill="#001C36"/>
<path opacity="0.1" d="M166.127 89.6245C166.127 89.6245 162.439 90.4501 162.328 91.9098C162.218 93.3695 166.127 89.6245 166.127 89.6245Z" fill="#001C36"/>
<path opacity="0.05" d="M166.937 107.773C166.937 107.773 161.728 108.73 163.207 109.382C164.686 110.034 167.115 110.557 167.115 110.557C167.115 110.557 168.798 110.644 166.937 107.773Z" fill="#001C36"/>
<g opacity="0.05">
<path opacity="0.05" d="M162.155 110.419C162.024 110.338 161.913 110.23 161.83 110.101C161.748 109.972 161.696 109.827 161.678 109.676L161.624 109.767C161.624 109.767 161.138 110.942 161.978 111.463C162.073 111.523 162.166 111.583 162.249 111.641C162.405 111.612 162.572 111.589 162.733 111.549C163.444 111.376 162.995 110.942 162.155 110.419Z" fill="#001C36"/>
<path opacity="0.05" d="M168.866 110.07C169.01 109.941 169.006 109.607 168.918 109.18C168.692 109.516 168.627 110.041 168.622 110.439C168.677 110.301 168.76 110.175 168.866 110.07Z" fill="#001C36"/>
<path opacity="0.05" d="M168.064 88.4207C167.872 88.9354 167.754 89.4738 167.712 90.0206C167.813 89.6429 167.948 89.2749 168.116 88.9213L168.064 88.4207Z" fill="#001C36"/>
<path opacity="0.05" d="M179.996 86.1376C180.03 85.9812 180.046 85.8214 180.043 85.6614C179.977 85.9863 179.932 86.2867 179.898 86.5515C179.928 86.4157 179.959 86.2867 179.996 86.1376Z" fill="#001C36"/>
<path opacity="0.05" d="M167.941 103.892C168.013 103.786 168.053 103.425 168.072 102.924C167.908 103.312 167.822 103.727 167.816 104.146C167.847 104.057 167.889 103.972 167.941 103.892Z" fill="#001C36"/>
<path opacity="0.05" d="M169.024 112.099C168.75 112.972 168.547 113.865 168.417 114.769L163.076 115.377C163.076 115.377 162.589 114.769 161.882 113.152C161.825 113.027 161.774 112.899 161.731 112.769C161.41 112.913 161.279 113.241 161.704 114.195C162.41 115.806 162.9 116.42 162.9 116.42L168.241 115.811C168.241 115.811 168.638 113.069 169.166 112.546C169.437 112.295 169.27 112.164 169.024 112.099Z" fill="#001C36"/>
<path opacity="0.05" d="M161.979 104.284C161.979 104.284 162.022 107.286 162.464 107.459C162.69 106.963 162.837 106.492 162.638 106.414C162.187 106.24 162.153 103.236 162.153 103.236C162.153 103.236 161.27 99.6757 161.491 98.71C161.712 97.7442 160.784 95.4478 160.784 95.4478L160.475 92.7064C159.53 91.1507 159.185 89.3118 159.504 87.5261V83.2982C159.504 83.2982 158.267 75.1184 158.09 70.984C157.978 68.336 158.009 64.7222 158.045 62.4681C158.045 62.0609 158.059 61.7004 158.066 61.3956L157.914 61.4111C157.914 61.4111 157.89 62.2478 157.869 63.514C157.833 65.7681 157.799 69.3818 157.914 72.0276C158.09 76.162 159.326 84.3441 159.326 84.3441V88.572C159.009 90.3571 159.354 92.1951 160.299 93.75L160.606 96.4915C160.606 96.4915 161.534 98.7968 161.313 99.7558C161.091 100.715 161.979 104.284 161.979 104.284Z" fill="#001C36"/>
<path opacity="0.05" d="M177.699 114.204C177.265 113.585 176.976 112.879 176.852 112.137C176.308 112.622 176.933 114.504 177.53 115.252C178.146 116.035 182.739 116.514 183.626 115.076V114.249C182.423 115.412 178.281 114.945 177.699 114.204Z" fill="#001C36"/>
<path opacity="0.05" d="M184.411 109.286C184.169 109.704 183.962 110.141 183.792 110.593V111.209C183.894 110.986 184.036 110.688 184.244 110.337C184.383 109.994 184.449 109.627 184.438 109.257C184.438 109.257 184.417 109.277 184.411 109.286Z" fill="#001C36"/>
<path opacity="0.05" d="M177.971 109.974C178.139 109.639 178.284 109.293 178.407 108.939C178.407 108.939 177.655 109.113 176.462 107.72C175.595 106.707 175.546 104.794 175.67 103.543C175.444 104.284 175.094 107.373 176.286 108.766C177.065 109.676 177.655 109.916 177.971 109.974Z" fill="#001C36"/>
<path opacity="0.05" d="M175.667 100.323C175.745 101.181 175.775 102.042 175.756 102.902C175.778 102.766 175.808 102.632 175.846 102.499C176.072 101.758 175.846 99.2796 175.846 99.2796C175.846 99.2796 175.891 97.5373 175.537 96.9721C175.182 96.4069 174.444 93.1848 174.444 93.1848C174.444 93.1848 174.444 92.0967 173.825 91.5314C173.206 90.9662 172.809 88.7455 172.809 88.7455C172.444 88.1917 172.284 87.5306 172.357 86.8741C172.49 85.786 171.607 84.6111 171.607 84.6111L170.106 79.9114L168.692 76.3867L167.895 78.4339C167.895 78.4339 167.895 78.692 167.868 79.1015L168.514 77.4392L169.928 80.9573L171.429 85.6569C171.429 85.6569 172.312 86.8318 172.179 87.9199C172.106 88.5764 172.265 89.2375 172.63 89.7913C172.63 89.7913 173.028 92.0165 173.647 92.5773C174.265 93.138 174.263 94.2306 174.263 94.2306C174.263 94.2306 175.015 97.4505 175.367 98.0135C175.719 98.5764 175.667 100.323 175.667 100.323Z" fill="#001C36"/>
</g>
<path d="M179.375 20.2605L179.043 21.8493L179.063 22.5569L179.077 23.0776L177.234 23.2645L177.029 22.8885C176.647 22.2076 175.855 20.8235 175.6 20.6099C175.259 20.3295 174.651 15.9102 175.374 16.1728C175.819 16.3421 176.184 16.668 176.399 17.0874C176.399 17.0874 180.028 17.4968 179.375 20.2605Z" fill="#FFCDD3"/>
<path opacity="0.1" d="M179.076 23.0776L177.234 23.2645L177.028 22.8884C177.276 22.6104 177.614 22.4256 177.985 22.3656C178.355 22.3055 178.735 22.3739 179.061 22.5591L179.076 23.0776Z" fill="#001C36"/>
<path d="M179.542 23.9387L177.113 24.4928L177.061 24.1367L176.923 23.1777C176.923 23.1777 177.885 21.9138 179.276 22.8617L179.398 23.349L179.542 23.9387Z" fill="#32D3CA"/>
<path d="M140.184 20.434L137.59 21.8047L137.364 21.3241C137.118 20.8145 136.75 20.0468 136.648 19.7665C136.495 19.3437 135.413 18.8096 135.413 18.8096C132.703 16.2529 135.932 14.0544 135.932 14.0544C137.644 10.6609 139.545 15.207 139.545 15.207C139.545 15.207 139.812 17.6036 139.624 17.7638C139.437 17.924 139.437 18.5804 139.437 18.5804C139.684 19.0507 139.893 19.5396 140.062 20.0424C140.141 20.2849 140.184 20.434 140.184 20.434Z" fill="#FFCDD3"/>
<path opacity="0.1" d="M140.184 20.4341L137.589 21.8048L137.363 21.3241C137.729 21.0215 139.027 19.989 139.454 20.0313C139.658 20.0564 139.864 20.0616 140.068 20.0469C140.141 20.285 140.184 20.4341 140.184 20.4341Z" fill="#001C36"/>
<path d="M140.448 21.2062L137.533 22.6214L137.474 22.0051L137.434 21.5778C137.434 21.5778 139.123 20.1515 139.622 20.2071C139.874 20.2431 140.13 20.2431 140.383 20.2071L140.417 20.7233L140.448 21.2062Z" fill="#32D3CA"/>
<path d="M172.309 30.8146C172.309 30.8146 159.601 32.2276 161.977 31.4666C163.629 30.9348 164.287 29.909 164.424 28.7519C164.537 27.7883 164.284 26.7492 163.952 25.8591C163.654 25.0695 163.275 24.3113 162.823 23.5961C162.823 23.5961 172.533 18.3312 170.593 23.1176C170.294 23.8416 170.108 24.6062 170.042 25.3851C169.984 26.1592 170.069 26.9373 170.293 27.6815C170.659 28.8891 171.357 29.9733 172.309 30.8146Z" fill="#FFCDD3"/>
<path opacity="0.1" d="M170.586 23.111C170.287 23.8349 170.101 24.5995 170.035 25.3785C169.121 26.1373 168.118 26.0861 166.829 26.0861C165.84 26.0861 164.743 26.3219 163.952 25.8524C163.654 25.0628 163.275 24.3047 162.823 23.5894C162.823 23.5894 172.531 18.3246 170.586 23.111Z" fill="#001C36"/>
<path d="M166.658 26.4198C169.56 26.4198 171.912 24.1015 171.912 21.2418C171.912 18.382 169.56 16.0637 166.658 16.0637C163.756 16.0637 161.403 18.382 161.403 21.2418C161.403 24.1015 163.756 26.4198 166.658 26.4198Z" fill="#FFCDD3"/>
<path opacity="0.1" d="M172.309 30.8146C172.309 30.8146 159.601 32.2276 161.977 31.4666C163.629 30.9347 164.287 29.9089 164.424 28.7518C165.057 28.0842 166.328 27.588 167.134 27.3299C167.879 27.0829 168.684 27.0697 169.437 27.2921C169.733 27.38 170.015 27.5089 170.275 27.6748C170.645 28.8868 171.349 29.9737 172.309 30.8146Z" fill="#001C36"/>
<path opacity="0.1" d="M179.542 23.9388L177.112 24.4928L177.061 24.1368C177.321 23.7847 177.685 23.5201 178.103 23.3791C178.521 23.2382 178.973 23.2277 179.398 23.3491L179.542 23.9388Z" fill="#001C36"/>
<path opacity="0.1" d="M140.448 21.2062L137.533 22.6214L137.475 22.005C138.419 21.5047 139.4 21.0755 140.41 20.7211L140.448 21.2062Z" fill="#001C36"/>
<path opacity="0.1" d="M177.336 62.3702C172.411 63.1446 165.411 64.1326 164.3 63.7988C163.377 63.5229 160.432 63.5518 157.869 63.6386C157.892 62.3747 157.914 61.5358 157.914 61.5358L176.99 59.5776C176.99 59.5776 176.972 60.4454 177.336 62.3702Z" fill="#001C36"/>
<path d="M182.245 61.2309C182.245 61.2309 166.039 63.9723 164.3 63.4561C162.561 62.9398 153.631 63.4983 153.631 63.4983C149.612 66.153 151.289 62.2367 151.289 62.2367C151.289 62.2367 150.937 60.1917 151.422 58.5384C151.749 57.3245 151.971 56.086 152.089 54.8356C152.089 54.8356 152.001 52.2232 152.486 51.6135C152.971 51.0038 153.547 46.6536 153.547 46.6536C153.547 46.6536 153.988 43.694 153.945 43.0421C153.902 42.3901 154.076 40.561 154.076 40.561L154.651 37.5147C151.339 37.0807 141.27 30.9881 141.27 30.9881C140.785 28.9432 137.032 24.1568 137.032 24.1568C136.977 23.7543 136.873 23.3598 136.723 22.9819C136.458 22.2854 140.433 20.8924 140.433 20.8924C140.433 20.8924 143.391 24.4527 144.009 25.4185C144.628 26.3842 146.746 28.1599 146.746 28.1599C147.075 28.1266 147.408 28.1692 147.717 28.2845L147.769 28.3001C148.479 28.5747 149.144 28.9495 149.745 29.4127C150.74 29.3894 151.706 29.7485 152.439 30.414C152.439 30.414 154.245 30.1515 154.559 30.4563C154.873 30.7612 156.413 30.4563 156.413 30.4563C156.413 30.4563 157.957 27.2364 158.973 28.171C159.989 29.1056 164.3 29.0611 164.3 29.0611C164.874 28.309 166.271 27.7705 167.145 27.5035C167.891 27.2575 168.695 27.2443 169.448 27.4656C169.773 27.5612 170.079 27.7118 170.352 27.9107L172.973 30.4341C172.973 30.4341 173.723 29.475 173.635 29.2592C173.547 29.0433 174.518 28.8675 174.518 28.8675C174.518 28.8675 175.798 28.4759 176.284 28.3446C176.769 28.2133 177.214 28.7318 177.255 28.7785C177.239 28.7229 176.907 27.6659 177.029 26.8648C177.151 26.0638 176.498 25.3072 176.498 25.3072C178.043 21.5644 181.531 24.6975 181.531 24.6975C181.531 24.6975 181.929 26.7425 181.576 27.5257C181.224 28.309 181.929 29.9623 181.841 30.3985C181.753 30.8346 182.019 31.5734 182.019 32.4011C182.019 33.2289 181.567 34.7932 181.312 35.4897C181.057 36.1862 178.928 37.7528 178.928 37.7528C178.928 37.7528 178.794 40.2339 177.866 41.6691C176.938 43.1044 177.521 48.0132 177.521 48.0132C177.521 48.0132 178.404 51.8427 179.508 53.0621C180.612 54.2816 182.245 61.2309 182.245 61.2309Z" fill="#001C36"/>
<path opacity="0.1" d="M158.621 32.597C158.621 32.597 158.136 31.1617 157.693 31.0393C157.254 30.8801 156.826 30.6912 156.413 30.4741L156.698 29.9379C156.698 29.9379 158.355 30.3829 158.621 30.8658C158.888 31.3486 158.621 32.597 158.621 32.597Z" fill="#001C36"/>
<path opacity="0.1" d="M149.745 29.4216C149.657 29.8667 145.726 30.2472 145.726 30.2472L147.713 28.2845L147.762 28.3023C148.475 28.5784 149.143 28.9555 149.745 29.4216Z" fill="#001C36"/>
<path d="M138.373 23.7963C138.567 23.7963 138.725 23.6409 138.725 23.4492C138.725 23.2575 138.567 23.1021 138.373 23.1021C138.178 23.1021 138.021 23.2575 138.021 23.4492C138.021 23.6409 138.178 23.7963 138.373 23.7963Z" fill="#575988"/>
<path d="M138.825 24.4928C139.019 24.4928 139.177 24.3374 139.177 24.1457C139.177 23.9539 139.019 23.7985 138.825 23.7985C138.63 23.7985 138.473 23.9539 138.473 24.1457C138.473 24.3374 138.63 24.4928 138.825 24.4928Z" fill="#575988"/>
<path d="M139.267 25.1359C139.462 25.1359 139.62 24.9805 139.62 24.7888C139.62 24.5971 139.462 24.4417 139.267 24.4417C139.073 24.4417 138.915 24.5971 138.915 24.7888C138.915 24.9805 139.073 25.1359 139.267 25.1359Z" fill="#575988"/>
<path d="M139.73 25.8301C139.925 25.8301 140.082 25.6747 140.082 25.483C140.082 25.2913 139.925 25.1359 139.73 25.1359C139.536 25.1359 139.378 25.2913 139.378 25.483C139.378 25.6747 139.536 25.8301 139.73 25.8301Z" fill="#575988"/>
<path d="M181.355 25.7278C181.514 25.7278 181.642 25.6013 181.642 25.4452C181.642 25.2891 181.514 25.1626 181.355 25.1626C181.197 25.1626 181.068 25.2891 181.068 25.4452C181.068 25.6013 181.197 25.7278 181.355 25.7278Z" fill="#575988"/>
<path d="M181.4 26.3709C181.558 26.3709 181.687 26.2443 181.687 26.0883C181.687 25.9322 181.558 25.8057 181.4 25.8057C181.242 25.8057 181.113 25.9322 181.113 26.0883C181.113 26.2443 181.242 26.3709 181.4 26.3709Z" fill="#575988"/>
<path d="M181.438 27.0117C181.597 27.0117 181.725 26.8852 181.725 26.7291C181.725 26.5731 181.597 26.4465 181.438 26.4465C181.28 26.4465 181.151 26.5731 181.151 26.7291C181.151 26.8852 181.28 27.0117 181.438 27.0117Z" fill="#575988"/>
<path opacity="0.1" d="M158.637 44.3905C158.594 44.3394 168.55 56.7271 176.277 49.5686C176.283 49.5708 164.074 51.2019 158.637 44.3905Z" fill="#001C36"/>
<path opacity="0.1" d="M152.924 50.8303C152.924 50.8303 158.881 50.9905 159.504 52.6795V54.4374C159.334 54.5301 159.143 54.5788 158.949 54.5788C158.755 54.5788 158.565 54.5301 158.395 54.4374C157.794 54.1169 154.193 52.3145 152.924 53.1824V50.8303Z" fill="#001C36"/>
<path d="M153.034 50.8303C153.034 50.8303 158.731 50.9839 159.327 52.5949V54.2683C159.165 54.3571 158.982 54.4037 158.797 54.4037C158.611 54.4037 158.428 54.3571 158.266 54.2683C157.693 53.9656 154.249 52.2455 153.034 53.0733V50.8303Z" fill="#001C36"/>
<path opacity="0.1" d="M156.176 38.0844C156.784 39.4725 157.56 40.7837 158.486 41.9896C159.493 43.3225 160.713 44.4851 162.099 45.432C162.099 45.432 156.275 38.8899 156.176 38.0844Z" fill="#001C36"/>
<path opacity="0.1" d="M154.227 31.2641C154.227 31.2641 155.22 35.492 157.781 36.9272L154.227 31.2641Z" fill="#001C36"/>
<path opacity="0.1" d="M152.703 31.6913C152.678 31.6134 151.82 35.0291 156.004 36.9272C156.004 36.9272 154.227 36.3331 152.703 31.6913Z" fill="#001C36"/>
<path opacity="0.1" d="M178.713 28.8564C178.648 28.8564 180.777 30.1915 181.358 30.8146C181.358 30.8146 179.971 28.7674 178.713 28.8564Z" fill="#001C36"/>
<path d="M165.237 25.9347C165.238 26.0477 165.263 26.1593 165.309 26.2624C165.356 26.3655 165.424 26.458 165.509 26.5339C165.594 26.6098 165.694 26.6675 165.802 26.7034C165.911 26.7393 166.026 26.7526 166.14 26.7425C167.741 26.8404 169.41 26.9094 170.882 26.2974C171.158 26.2003 171.406 26.0384 171.605 25.8257C171.867 25.5075 171.919 25.0758 172.025 24.6797C172.233 23.9053 172.675 23.2177 172.994 22.4812C173.532 21.2368 173.713 19.8703 173.515 18.5315C173.473 18.1211 173.336 17.7258 173.113 17.3766C172.689 16.778 171.914 16.5355 171.352 16.0593C170.79 15.5831 170.428 14.8554 169.771 14.5016C169.18 14.1767 168.455 14.2168 167.789 14.3281C166.479 14.5473 165.223 15.0119 164.09 15.6966C163.708 15.9191 163.291 16.1928 162.853 16.1104C162.469 16.0392 162.189 15.721 161.949 15.4229C161.642 16.135 161.512 16.9097 161.572 17.6814C161.589 17.7947 161.585 17.91 161.561 18.0219C161.506 18.1572 161.422 18.2794 161.315 18.3802C160.92 18.8252 160.674 19.5484 161.064 20.0068C161.234 20.2048 161.496 20.3139 161.66 20.5163C161.956 20.8791 161.857 21.4064 161.85 21.8693C161.834 22.0309 161.875 22.193 161.968 22.3277C162.053 22.4061 162.158 22.4615 162.271 22.4884C162.385 22.5153 162.503 22.5128 162.616 22.4812C162.839 22.4148 163.074 22.3929 163.307 22.4167C163.551 22.4951 163.763 22.6517 163.907 22.8617C164.637 23.7985 164.926 24.8177 165.237 25.9347Z" fill="#2D293D"/>
<g opacity="0.1">
<path opacity="0.1" d="M171.792 25.4319C171.594 25.6446 171.346 25.8065 171.07 25.9036C169.588 26.5111 167.922 26.4421 166.328 26.3486C166.157 26.3503 165.987 26.313 165.833 26.2396C165.589 26.0994 165.497 25.8057 165.422 25.5387C165.111 24.4261 164.824 23.4047 164.083 22.4768C163.94 22.2628 163.729 22.1021 163.483 22.0206C163.25 21.999 163.016 22.0209 162.792 22.0852C162.68 22.1171 162.561 22.1199 162.447 22.0934C162.334 22.0669 162.229 22.0119 162.144 21.9338C162.051 21.7992 162.01 21.6371 162.026 21.4755C162.026 21.0082 162.132 20.4852 161.836 20.1225C161.672 19.92 161.41 19.811 161.24 19.6107C161.13 19.4631 161.062 19.2887 161.044 19.1061C161.026 18.9235 161.059 18.7395 161.139 18.5738C160.856 19.0188 160.737 19.5774 161.064 19.9601C161.234 20.1581 161.496 20.2672 161.66 20.4697C161.956 20.8346 161.857 21.3597 161.85 21.8226C161.833 21.984 161.873 22.1462 161.965 22.281C162.051 22.3598 162.156 22.4154 162.27 22.4423C162.384 22.4692 162.503 22.4666 162.615 22.4345C162.839 22.3681 163.074 22.3462 163.306 22.37C163.551 22.4484 163.763 22.605 163.907 22.815C164.645 23.7429 164.934 24.7621 165.246 25.8791C165.283 26.154 165.422 26.4056 165.637 26.5845C165.792 26.658 165.962 26.6946 166.134 26.6913C167.734 26.7892 169.403 26.8604 170.875 26.2463C171.152 26.1498 171.4 25.9878 171.598 25.7745C171.698 25.6492 171.774 25.5076 171.824 25.3562C171.826 25.3851 171.81 25.4096 171.792 25.4319Z" fill="#001C36"/>
<path opacity="0.1" d="M161.572 17.8862C161.643 17.8103 161.698 17.7209 161.733 17.6236C161.753 17.511 161.753 17.3958 161.733 17.2832C161.689 16.6487 161.772 16.012 161.979 15.4095L161.949 15.3762C161.641 16.0872 161.511 16.8614 161.572 17.6325C161.579 17.7169 161.579 17.8018 161.572 17.8862Z" fill="#001C36"/>
</g>
<path opacity="0.1" d="M164.3 29.0723C164.3 29.0723 170.864 29.9312 171.453 28.9588L164.3 29.0723Z" fill="#001C36"/>
<path opacity="0.1" d="M177.061 26.3953C177.061 26.3953 180.71 26.3953 181.511 27.7482L177.061 26.3953Z" fill="#001C36"/>
<path d="M197.475 146.59C196.393 147.543 194.986 148.061 193.535 148.04C193.164 148.04 192.652 148.109 192.649 148.474C192.658 148.581 192.696 148.684 192.758 148.773C193.216 149.525 193.939 150.085 194.79 150.346C195.58 150.582 196.425 150.542 197.249 150.499L199.654 150.377C200.105 150.352 200.557 150.33 201.009 150.275C201.46 150.219 201.953 150.128 202.424 150.052C203.584 149.89 204.757 149.836 205.927 149.892C206.238 149.903 206.604 149.892 206.789 149.669C206.974 149.447 206.88 149.022 206.81 148.688C206.665 148 206.81 147.279 206.676 146.59C206.451 145.379 205.387 144.451 204.222 144.013C203.138 143.608 201.219 143.143 200.194 143.819C199.112 144.529 198.45 145.715 197.475 146.59Z" fill="#001C36"/>
<path d="M199.864 106.033C200.076 107.028 201.054 107.789 201.081 108.803C201.106 109.618 200.516 110.301 200.092 110.998C199.692 111.719 199.354 112.472 199.083 113.249C198.283 115.273 197.291 117.218 196.12 119.057C195.556 119.947 194.923 120.897 195.052 121.932C195.142 122.416 195.315 122.881 195.565 123.307L197.258 126.623C197.629 127.285 197.919 127.988 198.123 128.717C198.27 129.347 198.283 129.999 198.369 130.639C198.636 132.673 199.604 134.72 199.031 136.692C198.981 136.861 198.805 137.066 198.667 136.948C199.227 137.978 199.676 139.015 199.634 140.183C199.611 140.795 199.421 141.434 199.649 142.004C199.746 142.242 199.916 142.464 199.914 142.72C199.914 142.889 199.835 143.047 199.816 143.212C199.769 143.681 200.207 144.073 200.661 144.222C201.115 144.371 201.609 144.36 202.068 144.496C202.948 144.756 203.578 145.504 204.326 146.022C205.093 146.543 205.996 146.833 206.927 146.857C207.06 146.871 207.194 146.844 207.311 146.781C207.377 146.724 207.431 146.653 207.467 146.574C207.504 146.495 207.523 146.41 207.523 146.323C207.564 145.907 207.501 145.488 207.338 145.102C207.176 144.716 206.92 144.376 206.593 144.111C206.449 144.022 206.331 143.9 206.247 143.755C206.205 143.626 206.194 143.49 206.216 143.356C206.352 141.533 206.319 139.7 206.116 137.882C206.025 137.306 205.996 136.722 206.028 136.14C206.076 135.655 206.225 135.174 206.171 134.691C206.116 134.209 205.866 133.768 205.719 133.303C205.457 132.475 205.529 131.585 205.493 130.719C205.448 129.215 205.098 127.738 204.75 126.269C204.613 125.693 204.461 125.09 204.048 124.663C203.696 124.3 203.127 123.953 203.26 123.47C203.334 123.292 203.444 123.131 203.583 122.996C203.746 122.794 203.866 122.561 203.936 122.311C204.005 122.062 204.021 121.801 203.985 121.545C204.133 121.582 204.29 121.568 204.429 121.504C204.568 121.439 204.68 121.33 204.746 121.193C207.496 119.914 209.713 117.355 210.703 114.518C210.761 114.307 210.851 114.106 210.969 113.921C211.224 113.57 211.667 113.419 212.06 113.225C213.292 112.613 214.144 111.467 214.925 110.346C215.377 109.696 215.828 109.024 216.032 108.258C216.138 107.763 216.189 107.258 216.183 106.752L216.253 104.137C216.268 103.965 216.251 103.792 216.203 103.625C216.136 103.47 216.039 103.33 215.916 103.212C215.165 102.429 214.179 101.905 213.103 101.716C212.38 101.589 211.642 101.614 210.91 101.554C209.492 101.438 208.092 101.004 206.674 101.109C204.445 101.271 202.461 102.793 201.411 104.738C201.043 105.423 200.654 106.02 199.864 106.033Z" fill="#001C36"/>
<path d="M187.49 89.0325C187.52 89.4362 187.465 89.8416 187.327 90.223C187.154 90.588 186.718 90.8728 186.336 90.7237C186.451 90.4678 186.146 90.1763 185.862 90.2074C185.722 90.2392 185.592 90.3041 185.483 90.3963C185.374 90.4885 185.289 90.6055 185.236 90.737C185.048 91.1108 184.985 91.5339 185.056 91.9453C185.146 92.4571 185.446 92.9489 185.367 93.4629C185.304 93.8902 184.986 94.3152 185.155 94.7113C185.265 94.8922 185.403 95.0552 185.564 95.1941C185.787 95.4649 185.896 95.8098 185.869 96.1576C185.842 96.5054 185.68 96.8295 185.417 97.0633L189.689 97.1479C189.534 97.851 189.854 98.5698 190.22 99.195C191.245 100.914 192.659 102.376 194.353 103.466C196.047 104.556 197.975 105.244 199.984 105.477C199.875 105.539 199.782 105.625 199.711 105.727C199.64 105.829 199.593 105.946 199.573 106.069C199.554 106.191 199.562 106.316 199.597 106.435C199.633 106.554 199.695 106.664 199.778 106.756C200.126 107.097 200.715 107.054 201.151 106.834C201.587 106.614 201.928 106.249 202.325 105.966C203.027 105.476 203.883 105.249 204.739 105.325C205.274 105.377 205.794 105.548 206.331 105.575C207.912 105.657 209.267 104.536 210.789 104.077C211.897 103.741 213.155 103.741 214.085 103.058C214.487 102.764 214.817 102.281 214.699 101.805C214.602 101.532 214.448 101.281 214.248 101.069C213.713 100.386 213.397 99.5644 213.013 98.7878C212.252 97.2503 211.205 95.8674 209.926 94.7113C208.96 93.8796 207.937 93.1153 206.864 92.4238C206.605 92.235 206.328 92.0704 206.038 91.932C205.663 91.7695 205.247 91.6917 204.909 91.4869C204.407 91.1754 204.118 90.6258 203.732 90.183C202.885 89.2083 201.585 88.7611 200.541 87.9956C199.842 87.4816 199.223 86.8051 198.387 86.5581C197.981 86.4357 197.55 86.4268 197.143 86.3067C196.22 86.0307 195.547 85.223 194.641 84.8959C193.925 84.6378 193.135 84.7045 192.383 84.6133C191.536 84.5103 190.726 84.2064 190.024 83.7277C189.797 83.546 189.544 83.4004 189.272 83.296C188.127 82.9533 188.034 85.0539 187.917 85.7815C187.765 86.863 187.49 87.9377 187.49 89.0325Z" fill="#F4B30C"/>
<path d="M188.605 96.0776C188.797 98.1292 187.226 100.116 187.684 102.126C187.781 102.553 187.968 102.96 188.036 103.394C188.228 104.585 187.506 105.713 186.817 106.71L180.901 115.266C180.663 115.641 180.38 115.986 180.056 116.294C178.927 117.284 177.229 117.184 175.743 117.477C174.7 117.689 173.714 118.118 172.853 118.737C172.814 118.766 172.789 118.81 172.782 118.858C172.775 118.905 172.788 118.954 172.817 118.993C173.062 119.322 173.387 119.585 173.762 119.759C174.137 119.933 174.551 120.011 174.964 119.987C175.12 120.188 174.964 120.486 174.75 120.63C174.434 120.853 173.996 120.904 173.932 121.436C173.911 121.621 173.949 121.808 174.041 121.97C174.28 122.329 174.651 122.582 175.075 122.678C177.123 123.296 179.336 122.21 180.869 120.735C182.402 119.26 183.502 117.397 185.006 115.897C185.839 115.065 186.785 114.355 187.643 113.55C189.355 111.941 190.687 109.99 191.97 108.034C192.356 107.444 192.746 106.839 192.907 106.156C193.067 105.472 192.993 104.78 193.176 104.119C193.415 103.254 194.058 102.562 194.594 101.836C195.644 100.412 196.346 98.67 196.206 96.9143C196.066 95.1586 194.964 93.4274 193.284 92.831C192.763 92.627 192.189 92.5927 191.647 92.7331C190.958 92.9423 190.45 93.503 189.98 94.0415L188.851 95.3188C188.576 95.6016 188.361 95.9351 188.217 96.3001C188.144 96.484 188.127 96.6847 188.167 96.8781C188.207 97.0715 188.303 97.2494 188.443 97.3905" fill="#FBBEBE"/>
<path d="M191.605 87.6619C190.828 87.7064 189.972 87.782 189.423 88.3294C189.193 88.5808 189.007 88.868 188.872 89.1794C188.34 90.2498 187.82 91.369 187.782 92.5618C187.75 93.5141 188.03 94.4465 188.177 95.3878C188.299 96.171 187.989 96.9699 187.931 97.762C188.895 97.4705 190.169 97.0745 191.042 96.5827C191.639 96.2467 192.214 95.864 192.865 95.6503C193.793 95.3455 195.348 95.8728 196.231 96.2956C196.279 95.6859 195.814 94.6223 195.863 94.0104C195.87 93.7528 195.917 93.4977 196.001 93.2538C196.133 92.9958 196.29 92.7507 196.468 92.5217C196.805 91.9832 196.959 91.3537 196.91 90.7234C196.861 90.0931 196.611 89.4942 196.195 89.0126C195.412 88.1447 194.186 87.8199 193.016 87.6774C192.279 87.5933 191.537 87.568 190.796 87.6018" fill="#F4B30C"/>
<defs>
<linearGradient id="paint0_linear" x1="159.468" y1="121.536" x2="159.468" y2="12.7993" gradientUnits="userSpaceOnUse">
<stop stop-color="#808080" stop-opacity="0.25"/>
<stop offset="0.54" stop-color="#808080" stop-opacity="0.12"/>
<stop offset="1" stop-color="#808080" stop-opacity="0.1"/>
</linearGradient>
</defs>
</svg>
