<svg width="16" height="16" viewBox="0 0 16 16" fill="none" xmlns="http://www.w3.org/2000/svg">
<path d="M7.37801 8.61069C7.70419 8.61069 8.01702 8.48097 8.24766 8.25006C8.47831 8.01915 8.60788 7.70597 8.60788 7.37941C8.60788 7.05285 8.47831 6.73967 8.24766 6.50876C8.01702 6.27785 7.70419 6.14813 7.37801 6.14813C7.05183 6.14813 6.739 6.27785 6.50836 6.50876C6.27771 6.73967 6.14814 7.05285 6.14814 7.37941C6.14814 7.70597 6.27771 8.01915 6.50836 8.25006C6.739 8.48097 7.05183 8.61069 7.37801 8.61069ZM3.07345 7.37941C3.07286 6.34184 3.4462 5.33889 4.12491 4.55476C4.80361 3.77063 5.74211 3.25797 6.76803 3.11094C7.79396 2.96391 8.83843 3.19238 9.70961 3.7544C10.5808 4.31641 11.2202 5.17422 11.5104 6.17029L9.78241 7.90024C9.89495 7.38041 9.83633 6.83807 9.61535 6.35436C9.39436 5.87065 9.02288 5.47158 8.55647 5.21685C8.09007 4.96211 7.55382 4.86541 7.02795 4.94121C6.50208 5.01701 6.01485 5.26124 5.63917 5.63735C5.26349 6.01346 5.01955 6.50124 4.94383 7.02772C4.86812 7.55419 4.96471 8.09106 5.21915 8.55799C5.47359 9.02493 5.87221 9.39684 6.35536 9.61808C6.83852 9.83932 7.38024 9.898 7.89948 9.78534L6.56998 11.1176C6.44075 11.2466 6.3192 11.3831 6.20594 11.5264C5.30425 11.2706 4.51055 10.7273 3.94541 9.9788C3.38026 9.23034 3.07454 8.31767 3.07468 7.37941H3.07345ZM7.37801 1.83864C8.48468 1.8383 9.56604 2.17013 10.4824 2.79128C11.3988 3.41242 12.1082 4.29435 12.5189 5.32317C13.0718 5.0103 13.7063 4.8721 14.3391 4.92669C13.7592 3.28401 12.6181 1.89932 11.1174 1.01717C9.6167 0.135011 7.85289 -0.187866 6.13748 0.105557C4.42207 0.39898 2.86541 1.28983 1.74239 2.62077C0.61937 3.95172 0.00224605 5.63715 0 7.37941C7.89638e-05 8.93396 0.489812 10.4489 1.39953 11.7087C2.30925 12.9685 3.59262 13.909 5.06708 14.3965L5.34749 13.2773C5.40406 13.0507 5.47786 12.8291 5.56641 12.6148C4.33225 12.184 3.29019 11.3298 2.62471 10.2036C1.95923 9.07735 1.71326 7.75171 1.93036 6.46135C2.14746 5.17099 2.81361 3.99915 3.81088 3.15332C4.80815 2.30748 6.0722 1.8422 7.37924 1.83987L7.37801 1.83864ZM11.6653 7.75618L7.75435 11.6717L7.4395 11.9881C7.00187 12.4262 6.69152 12.9753 6.5417 13.5765L6.26497 14.6822L6.16781 15.0663C6.1363 15.1922 6.1379 15.3241 6.17247 15.4492C6.20703 15.5743 6.27338 15.6882 6.36504 15.78C6.4567 15.8718 6.57055 15.9382 6.69549 15.9728C6.82042 16.0074 6.95218 16.009 7.07792 15.9775L8.56607 15.6044C9.16651 15.4543 9.71491 15.1436 10.1526 14.7055L15.4263 9.42581C15.7794 9.07838 15.9846 8.60778 15.9992 8.11237C16.0137 7.61696 15.8364 7.1351 15.5044 6.76751C15.1723 6.39992 14.7111 6.17507 14.2173 6.13995C13.7235 6.10483 13.2353 6.26217 12.8546 6.57908C12.8054 6.61971 12.7575 6.6628 12.712 6.70836L11.6666 7.75495L11.6653 7.75618Z" fill="#001C36"/>
</svg>
