<svg width="23" height="23" viewBox="0 0 23 23" fill="none" xmlns="http://www.w3.org/2000/svg">
<path d="M11.5 23C17.8513 23 23 17.8513 23 11.5C23 5.14873 17.8513 0 11.5 0C5.14873 0 0 5.14873 0 11.5C0 17.8513 5.14873 23 11.5 23Z" fill="#001C36"/>
<path d="M11.5 20.7639C16.6163 20.7639 20.7639 16.6163 20.7639 11.5C20.7639 6.38367 16.6163 2.23608 11.5 2.23608C6.38367 2.23608 2.23608 6.38367 2.23608 11.5C2.23608 16.6163 6.38367 20.7639 11.5 20.7639Z" fill="#F4B30C"/>
<path d="M11.4999 19.8056C16.0869 19.8056 19.8054 16.087 19.8054 11.5C19.8054 6.91298 16.0869 3.19446 11.4999 3.19446C6.91286 3.19446 3.19434 6.91298 3.19434 11.5C3.19434 16.087 6.91286 19.8056 11.4999 19.8056Z" fill="#001C36"/>
<path d="M11.5 5.11108L12.4781 9.13864L16.0176 6.98239L13.8613 10.5218L17.8889 11.5L13.8613 12.4781L16.0176 16.0176L12.4781 13.8613L11.5 17.8889L10.5218 13.8613L6.98239 16.0176L9.13864 12.4781L5.11108 11.5L9.13864 10.5218L6.98239 6.98239L10.5218 9.13864L11.5 5.11108Z" fill="#CCD6DD"/>
<path d="M11.0803 13.2556L16.6878 16.6935L13.2513 11.0853L11.0803 13.2556Z" fill="white"/>
<path d="M11.9197 9.7539L6.31152 6.31604L9.74874 11.9248L11.9197 9.7539Z" fill="#DD2E44"/>
<path d="M11.4999 13.4569C12.5779 13.4569 13.4517 12.583 13.4517 11.5051C13.4517 10.4271 12.5779 9.55328 11.4999 9.55328C10.4219 9.55328 9.5481 10.4271 9.5481 11.5051C9.5481 12.583 10.4219 13.4569 11.4999 13.4569Z" fill="#8899A6"/>
<path d="M11.4999 12.558C12.0814 12.558 12.5528 12.0866 12.5528 11.5051C12.5528 10.9236 12.0814 10.4522 11.4999 10.4522C10.9184 10.4522 10.447 10.9236 10.447 11.5051C10.447 12.0866 10.9184 12.558 11.4999 12.558Z" fill="#F5F8FA"/>
</svg>
