<svg width="220" height="220" viewBox="0 0 220 220" fill="none" xmlns="http://www.w3.org/2000/svg">
<path d="M197.615 71.731C197.868 69.817 198 67.903 198 66C198 39.831 174.427 18.832 148.269 22.385C140.646 8.822 126.126 0 110 0C93.874 0 79.354 8.822 71.731 22.385C45.518 18.832 22 39.831 22 66C22 67.903 22.132 69.817 22.385 71.731C8.822 79.365 0 93.885 0 110C0 126.115 8.822 140.635 22.385 148.269C22.1312 150.169 22.0026 152.083 22 154C22 180.169 45.518 201.113 71.731 197.615C79.354 211.178 93.874 220 110 220C126.126 220 140.646 211.178 148.269 197.615C174.427 201.113 198 180.169 198 154C198 152.097 197.868 150.183 197.615 148.269C211.178 140.635 220 126.115 220 110C220 93.885 211.178 79.365 197.615 71.731Z" fill="#001C36"/>
<path d="M29 149.999V150C29 174.165 50.5077 193.545 74.6734 190.725C81.862 203.032 95.2048 211 110 211C124.795 211 138.138 203.032 145.327 190.725C169.443 193.545 191 174.165 191 150C191 148.446 190.906 146.885 190.724 145.326C203.031 138.129 211 124.786 211 110C211 95.2139 203.031 81.8713 190.724 74.6736C190.906 73.1145 191 71.5544 191 70C191 45.8372 169.446 26.4056 145.326 29.2737C138.137 16.9674 124.795 9 110 9C95.2053 9 81.8629 16.9675 74.6742 29.2739C50.5055 26.4049 29 45.8372 29 70C29 71.5544 29.0943 73.1145 29.2757 74.6736C16.9687 81.8713 9 95.2139 9 110C9 124.786 16.9684 138.128 29.2751 145.326C29.094 146.877 29.0021 148.437 29 149.999Z" stroke="#32D3CA" stroke-width="2"/>
<path d="M117.162 66.4706C116.863 66.3711 116.629 66.1368 116.529 65.8382L111.474 50.673C111.322 50.2172 110.678 50.2172 110.526 50.673L105.471 65.8382C105.371 66.1368 105.137 66.3711 104.838 66.4706L89.673 71.5257C89.2172 71.6776 89.2172 72.3224 89.673 72.4743L104.838 77.5294C105.137 77.6289 105.371 77.8632 105.471 78.1618L110.526 93.327C110.678 93.7828 111.322 93.7828 111.474 93.327L116.529 78.1618C116.629 77.8632 116.863 77.6289 117.162 77.5294L132.327 72.4743C132.783 72.3224 132.783 71.6776 132.327 71.5257L117.162 66.4706ZM97.3739 72C97.0903 72 97.0258 71.6025 97.2948 71.5128L106.386 68.4826C106.858 68.3252 107.374 68.539 107.596 68.9841L108.742 71.2764C108.909 71.6088 108.667 72 108.295 72H97.3739ZM111 85.6261C111 85.9097 110.603 85.9742 110.513 85.7052L107.483 76.6145C107.325 76.1423 107.539 75.6264 107.984 75.4038L110.276 74.2576C110.609 74.0914 111 74.3332 111 74.7049V85.6261ZM111 58.3739C111 58.0903 111.397 58.0258 111.487 58.2948L114.517 67.3855C114.675 67.8577 114.461 68.3736 114.016 68.5962L111.724 69.7424C111.391 69.9086 111 69.6668 111 69.2952V58.3739ZM115.614 75.5174C115.142 75.6748 114.626 75.461 114.404 75.0159L113.258 72.7236C113.091 72.3912 113.333 72 113.705 72H124.626C124.91 72 124.974 72.3975 124.705 72.4872L115.614 75.5174ZM104.527 81.2335C104.652 81.704 104.42 82.1965 103.978 82.3998L98.3425 84.989C98.1317 85.0859 97.9141 84.8683 98.011 84.6575L100.585 79.0556C100.795 78.5986 101.312 78.3686 101.792 78.5186L103.459 79.0398C103.787 79.1421 104.039 79.4051 104.127 79.7366L104.527 81.2335ZM120.233 78.4734C120.704 78.348 121.197 78.5797 121.4 79.0222L123.989 84.6575C124.086 84.8683 123.868 85.0859 123.657 84.989L118.056 82.4152C117.599 82.2052 117.369 81.6884 117.519 81.2082L118.04 79.5406C118.142 79.2131 118.405 78.961 118.737 78.8726L120.233 78.4734ZM101.803 65.4602C101.319 65.6216 100.791 65.3927 100.578 64.929L98.011 59.3425C97.9141 59.1317 98.1317 58.9141 98.3425 59.011L103.929 61.5778C104.393 61.7908 104.622 62.3186 104.46 62.8027L103.954 64.3215C103.854 64.6201 103.62 64.8544 103.321 64.9539L101.803 65.4602ZM117.473 62.7665C117.348 62.296 117.58 61.8035 118.022 61.6002L123.657 59.011C123.868 58.9141 124.086 59.1317 123.989 59.3425L121.415 64.9444C121.205 65.4014 120.688 65.6314 120.208 65.4814L118.541 64.9602C118.213 64.8579 117.961 64.5949 117.873 64.2634L117.473 62.7665Z" fill="#32D3CA"/>
<path d="M68.1577 110.273H66.0483L64.5994 119H66.7088L68.1577 110.273ZM73.6495 119.124C75.4947 119.124 76.8029 118.058 77.1353 116.435H75.1921C74.9918 117.125 74.5188 117.509 73.9393 117.509C73.2106 117.509 72.8398 116.891 73.0273 115.727C73.2106 114.572 73.7987 113.955 74.5401 113.955C75.1239 113.955 75.4435 114.364 75.4137 115.028H77.3612C77.587 113.418 76.5856 112.369 74.7702 112.369C72.712 112.369 71.229 113.741 70.9052 115.749C70.5685 117.747 71.5742 119.124 73.6495 119.124ZM80.8224 119.124C82.8764 119.124 84.3423 117.768 84.6747 115.761C85.0071 113.737 83.9801 112.369 81.9219 112.369C79.8636 112.369 78.3977 113.724 78.0696 115.736C77.733 117.756 78.7557 119.124 80.8224 119.124ZM81.0568 117.551C80.3026 117.551 80.0085 116.827 80.1875 115.749C80.3622 114.658 80.9205 113.912 81.6875 113.912C82.4375 113.912 82.7315 114.645 82.5568 115.719C82.3778 116.814 81.8239 117.551 81.0568 117.551ZM87.9197 115.267C88.0433 114.521 88.5589 114.078 89.2152 114.078C89.8842 114.078 90.1911 114.513 90.0717 115.237L89.4453 119H91.5291L92.228 114.828C92.4751 113.349 91.7379 112.369 90.3658 112.369C89.3942 112.369 88.5717 112.855 88.1626 113.656H88.0902L88.2862 112.455H86.3047L85.2138 119H87.2976L87.9197 115.267ZM97.592 112.455H96.4073L96.6673 110.886H94.5835L94.3235 112.455H93.4627L93.2028 113.989H94.0721L93.5437 117.172C93.3008 118.493 94.0508 119.158 95.5465 119.094C96.0408 119.072 96.4201 118.97 96.6417 118.906L96.5735 117.402C96.4755 117.419 96.2582 117.466 96.1048 117.466C95.7681 117.466 95.5977 117.33 95.6616 116.942L96.1516 113.989H97.332L97.592 112.455ZM97.5643 119H99.6481L100.236 115.446C100.373 114.666 101.012 114.142 101.749 114.142C102.009 114.142 102.363 114.18 102.554 114.253L102.861 112.438C102.686 112.395 102.486 112.365 102.29 112.365C101.574 112.365 100.931 112.783 100.547 113.648H100.479L100.679 112.455H98.6552L97.5643 119ZM102.615 119H104.699L105.79 112.455H103.706L102.615 119ZM104.895 111.688C105.483 111.688 106.024 111.236 106.101 110.69C106.173 110.141 105.764 109.697 105.172 109.697C104.584 109.697 104.043 110.141 103.957 110.69C103.876 111.236 104.303 111.688 104.895 111.688ZM106.025 119H108.088L108.258 117.939H108.339C108.493 118.544 108.987 119.094 109.975 119.094C111.424 119.094 112.788 117.96 113.154 115.732C113.538 113.422 112.481 112.369 111.113 112.369C110.078 112.369 109.4 112.974 109.059 113.575H109.017L109.558 110.273H107.474L106.025 119ZM108.612 115.727C108.782 114.658 109.341 113.997 110.103 113.997C110.879 113.997 111.186 114.675 111.015 115.727C110.845 116.784 110.299 117.47 109.532 117.47C108.77 117.47 108.441 116.788 108.612 115.727ZM118.393 116.175C118.273 116.938 117.715 117.364 117.097 117.364C116.458 117.364 116.138 116.929 116.249 116.217L116.876 112.455H114.792L114.093 116.626C113.85 118.105 114.587 119.085 115.934 119.085C116.914 119.085 117.745 118.582 118.15 117.781H118.218L118.018 119H120.004L121.094 112.455H119.015L118.393 116.175ZM126.115 112.455H124.931L125.191 110.886H123.107L122.847 112.455H121.986L121.726 113.989H122.596L122.067 117.172C121.824 118.493 122.574 119.158 124.07 119.094C124.564 119.072 124.944 118.97 125.165 118.906L125.097 117.402C124.999 117.419 124.782 117.466 124.628 117.466C124.292 117.466 124.121 117.33 124.185 116.942L124.675 113.989H125.855L126.115 112.455ZM129.06 119.124C130.786 119.124 132.034 118.293 132.499 117.006L130.598 116.95C130.36 117.389 129.891 117.619 129.35 117.619C128.536 117.619 128.144 117.138 128.276 116.307L128.289 116.23H132.648L132.729 115.71C133.087 113.558 131.979 112.369 130.121 112.369C128.148 112.369 126.648 113.724 126.311 115.753C125.958 117.845 127.006 119.124 129.06 119.124ZM128.51 115.02C128.659 114.372 129.256 113.874 129.929 113.874C130.611 113.874 131.012 114.351 130.905 115.02H128.51ZM135.63 119.094C136.614 119.094 137.296 118.544 137.658 117.939H137.727L137.548 119H139.61L141.059 110.273H138.975L138.425 113.575H138.383C138.234 112.974 137.765 112.369 136.729 112.369C135.366 112.369 133.955 113.422 133.572 115.732C133.201 117.96 134.181 119.094 135.63 119.094ZM136.614 117.47C135.843 117.47 135.532 116.784 135.711 115.727C135.881 114.675 136.414 113.997 137.19 113.997C137.952 113.997 138.293 114.658 138.119 115.727C137.94 116.788 137.373 117.47 136.614 117.47ZM148.299 112.455H147.114L147.374 110.886H145.29L145.031 112.455H144.17L143.91 113.989H144.779L144.251 117.172C144.008 118.493 144.758 119.158 146.254 119.094C146.748 119.072 147.127 118.97 147.349 118.906L147.281 117.402C147.183 117.419 146.965 117.466 146.812 117.466C146.475 117.466 146.305 117.33 146.369 116.942L146.859 113.989H148.039L148.299 112.455ZM151.252 119.124C153.306 119.124 154.772 117.768 155.104 115.761C155.437 113.737 154.41 112.369 152.352 112.369C150.293 112.369 148.827 113.724 148.499 115.736C148.163 117.756 149.185 119.124 151.252 119.124ZM151.487 117.551C150.732 117.551 150.438 116.827 150.617 115.749C150.792 114.658 151.35 113.912 152.117 113.912C152.867 113.912 153.161 114.645 152.987 115.719C152.808 116.814 152.254 117.551 151.487 117.551Z" fill="white"/>
<path d="M68.4744 136.588C69.549 136.831 70.3984 137.368 71.0224 138.2C71.6637 139.015 71.9844 139.951 71.9844 141.008C71.9844 142.568 71.447 143.79 70.3724 144.674C69.2977 145.558 67.7897 146 65.8484 146H56.7744V127.67H65.5624C67.4344 127.67 68.899 128.086 69.9564 128.918C71.031 129.75 71.5684 130.92 71.5684 132.428C71.5684 133.503 71.2824 134.404 70.7104 135.132C70.1557 135.843 69.4104 136.328 68.4744 136.588ZM61.8704 134.95H64.4444C65.727 134.95 66.3684 134.421 66.3684 133.364C66.3684 132.272 65.727 131.726 64.4444 131.726H61.8704V134.95ZM64.8344 141.892C66.117 141.892 66.7584 141.355 66.7584 140.28C66.7584 139.725 66.585 139.301 66.2384 139.006C65.909 138.711 65.4324 138.564 64.8084 138.564H61.8704V141.892H64.8344ZM79.3137 131.752V134.742H85.1637V138.616H79.3137V141.918H85.9437V146H74.2177V127.67H85.9437V131.752H79.3137ZM100.058 143.01H93.5579L92.5699 146H87.2139L93.8959 127.67H99.7719L106.428 146H101.046L100.058 143.01ZM98.7839 139.11L96.8079 133.182L94.8579 139.11H98.7839ZM107.465 136.796C107.465 134.993 107.837 133.39 108.583 131.986C109.345 130.565 110.42 129.464 111.807 128.684C113.193 127.887 114.788 127.488 116.591 127.488C118.879 127.488 120.803 128.103 122.363 129.334C123.923 130.547 124.928 132.203 125.379 134.3H119.893C119.563 133.607 119.104 133.078 118.515 132.714C117.943 132.35 117.275 132.168 116.513 132.168C115.334 132.168 114.389 132.593 113.679 133.442C112.985 134.274 112.639 135.392 112.639 136.796C112.639 138.217 112.985 139.353 113.679 140.202C114.389 141.034 115.334 141.45 116.513 141.45C117.275 141.45 117.943 141.268 118.515 140.904C119.104 140.54 119.563 140.011 119.893 139.318H125.379C124.928 141.415 123.923 143.079 122.363 144.31C120.803 145.523 118.879 146.13 116.591 146.13C114.788 146.13 113.193 145.74 111.807 144.96C110.42 144.163 109.345 143.062 108.583 141.658C107.837 140.237 107.465 138.616 107.465 136.796ZM136.58 146.182C134.864 146.182 133.287 145.783 131.848 144.986C130.409 144.171 129.265 143.053 128.416 141.632C127.584 140.193 127.168 138.573 127.168 136.77C127.168 134.967 127.584 133.355 128.416 131.934C129.265 130.495 130.409 129.377 131.848 128.58C133.287 127.783 134.864 127.384 136.58 127.384C138.313 127.384 139.891 127.783 141.312 128.58C142.751 129.377 143.886 130.495 144.718 131.934C145.55 133.355 145.966 134.967 145.966 136.77C145.966 138.573 145.55 140.193 144.718 141.632C143.886 143.053 142.751 144.171 141.312 144.986C139.873 145.783 138.296 146.182 136.58 146.182ZM136.58 141.45C137.88 141.45 138.903 141.025 139.648 140.176C140.411 139.327 140.792 138.191 140.792 136.77C140.792 135.314 140.411 134.17 139.648 133.338C138.903 132.489 137.88 132.064 136.58 132.064C135.263 132.064 134.231 132.489 133.486 133.338C132.741 134.17 132.368 135.314 132.368 136.77C132.368 138.209 132.741 139.353 133.486 140.202C134.231 141.034 135.263 141.45 136.58 141.45ZM165.235 146H160.139L153.353 135.756V146H148.257V127.67H153.353L160.139 138.044V127.67H165.235V146Z" fill="white"/>
</svg>
