<svg width="13" height="18" viewBox="0 0 13 18" fill="none" xmlns="http://www.w3.org/2000/svg">
<path d="M13 6.3C13 5.47267 12.8319 4.65345 12.5052 3.88909C12.1786 3.12474 11.6998 2.43024 11.0962 1.84523C10.4926 1.26022 9.77606 0.796164 8.98744 0.479559C8.19883 0.162954 7.35359 0 6.5 0C5.64641 0 4.80117 0.162954 4.01256 0.479559C3.22394 0.796164 2.50739 1.26022 1.90381 1.84523C1.30022 2.43024 0.821438 3.12474 0.494783 3.88909C0.168127 4.65345 -1.27195e-08 5.47267 0 6.3C0 7.5483 0.380714 8.7093 1.02607 9.6885H1.01864C3.21007 13.014 6.5 18 6.5 18L11.9814 9.6885H11.9749C12.6438 8.67723 12.9996 7.50127 13 6.3V6.3ZM6.5 9C5.76118 9 5.05262 8.71554 4.5302 8.20919C4.00778 7.70284 3.71429 7.01608 3.71429 6.3C3.71429 5.58392 4.00778 4.89716 4.5302 4.39081C5.05262 3.88446 5.76118 3.6 6.5 3.6C7.23882 3.6 7.94737 3.88446 8.4698 4.39081C8.99222 4.89716 9.28571 5.58392 9.28571 6.3C9.28571 7.01608 8.99222 7.70284 8.4698 8.20919C7.94737 8.71554 7.23882 9 6.5 9Z" fill="#001C36"/>
</svg>
