<svg width="48" height="48" viewBox="0 0 48 48" fill="none" xmlns="http://www.w3.org/2000/svg">
<path d="M21.5 1.44338C23.047 0.550211 24.953 0.550212 26.5 1.44338L42.2846 10.5566C43.8316 11.4498 44.7846 13.1004 44.7846 14.8868V33.1133C44.7846 34.8996 43.8316 36.5502 42.2846 37.4434L26.5 46.5566C24.953 47.4498 23.047 47.4498 21.5 46.5566L5.71539 37.4434C4.16839 36.5502 3.21539 34.8996 3.21539 33.1132V14.8868C3.21539 13.1004 4.16839 11.4498 5.71539 10.5566L21.5 1.44338Z" fill="#001C36"/>
<path d="M27.9743 20.6581C27.6757 20.5586 27.4414 20.3243 27.3419 20.0257L24.4743 11.423C24.3224 10.9672 23.6776 10.9672 23.5257 11.423L20.6581 20.0257C20.5586 20.3243 20.3243 20.5586 20.0257 20.6581L11.423 23.5257C10.9672 23.6776 10.9672 24.3224 11.423 24.4743L20.0257 27.3419C20.3243 27.4414 20.5586 27.6757 20.6581 27.9743L23.5257 36.577C23.6776 37.0328 24.3224 37.0328 24.4743 36.577L27.3419 27.9743C27.4414 27.6757 27.6757 27.4414 27.9743 27.3419L36.577 24.4743C37.0328 24.3224 37.0328 23.6776 36.577 23.5257L27.9743 20.6581ZM16.2072 24C15.9236 24 15.8591 23.6025 16.1282 23.5128L20.8439 21.9409C21.316 21.7836 21.832 21.9973 22.0545 22.4424L22.4715 23.2764C22.6378 23.6088 22.396 24 22.0243 24H16.2072ZM24 31.7928C24 32.0764 23.6025 32.1409 23.5128 31.8718L21.9409 27.1561C21.7836 26.684 21.9973 26.168 22.4424 25.9455L23.2764 25.5285C23.6088 25.3622 24 25.604 24 25.9757V31.7928ZM24 16.2072C24 15.9236 24.3975 15.8591 24.4872 16.1282L26.0591 20.8439C26.2164 21.316 26.0027 21.832 25.5576 22.0545L24.7236 22.4715C24.3912 22.6378 24 22.396 24 22.0243V16.2072ZM27.1561 26.0591C26.684 26.2164 26.168 26.0027 25.9455 25.5576L25.5285 24.7236C25.3622 24.3912 25.604 24 25.9757 24H31.7928C32.0764 24 32.1409 24.3975 31.8718 24.4872L27.1561 26.0591ZM19.9328 29.3689C20.0583 29.8394 19.8266 30.3319 19.3841 30.5352L16.4467 31.8849C16.2359 31.9817 16.0183 31.7641 16.1151 31.5533L17.4494 28.6494C17.6594 28.1923 18.1762 27.9624 18.6563 28.1124L19.1574 28.269C19.4848 28.3713 19.7369 28.6343 19.8253 28.9658L19.9328 29.3689ZM29.3689 28.0672C29.8394 27.9417 30.3319 28.1734 30.5352 28.6159L31.8849 31.5533C31.9817 31.7641 31.7641 31.9817 31.5533 31.8849L28.6494 30.5506C28.1923 30.3406 27.9624 29.8238 28.1124 29.3437L28.269 28.8426C28.3713 28.5152 28.6343 28.2631 28.9658 28.1747L29.3689 28.0672ZM18.6672 19.8665C18.1832 20.0278 17.6554 19.7989 17.4423 19.3353L16.1151 16.4467C16.0183 16.2359 16.2359 16.0183 16.4467 16.1151L19.3353 17.4423C19.7989 17.6554 20.0278 18.1832 19.8665 18.6672L19.7248 19.0923C19.6252 19.3909 19.3909 19.6252 19.0923 19.7248L18.6672 19.8665ZM28.0672 18.6311C27.9417 18.1606 28.1734 17.6681 28.6159 17.4648L31.5533 16.1151C31.7641 16.0183 31.9817 16.2359 31.8849 16.4467L30.5506 19.3506C30.3406 19.8077 29.8238 20.0376 29.3437 19.8876L28.8426 19.731C28.5152 19.6287 28.2631 19.3657 28.1747 19.0342L28.0672 18.6311Z" fill="white"/>
</svg>
