<svg width="729" height="37" viewBox="0 0 729 37" fill="none" xmlns="http://www.w3.org/2000/svg">
<rect width="729" height="37" rx="5" fill="white"/>
<path d="M22.1293 14.2727H20.0199V23H22.1293V14.2727ZM26.6793 23C29.3384 23 30.9876 21.3594 30.9876 18.6321C30.9876 15.9091 29.3384 14.2727 26.6751 14.2727H23.4535V23H26.6793ZM25.5629 21.2017V16.071H26.5685C28.0685 16.071 28.8739 16.7528 28.8739 18.6321C28.8739 20.5199 28.0685 21.2017 26.5984 21.2017H25.5629ZM38.1211 23H39.6552L39.9961 20.9205H41.1509L41.4109 19.3864H40.2475L40.4947 17.8864H41.6495L41.9094 16.3523H40.7461L41.087 14.2727H39.5529L39.212 16.3523H37.6779L38.0188 14.2727H36.4847L36.1438 16.3523H34.989L34.729 17.8864H35.8924L35.6452 19.3864H34.4904L34.2305 20.9205H35.3938L35.0529 23H36.587L36.9279 20.9205H38.462L38.1211 23ZM37.1793 19.3864L37.4265 17.8864H38.9606L38.7134 19.3864H37.1793Z" fill="#001C36"/>
<path d="M90.4691 23H92.5785V20.2898H94.0103C96.0089 20.2898 97.2575 19.1051 97.2575 17.294C97.2575 15.5 96.0344 14.2727 94.0742 14.2727H90.4691V23ZM92.5785 18.6278V15.973H93.6183C94.5643 15.973 95.0714 16.4844 95.0714 17.294C95.0714 18.0994 94.5643 18.6278 93.6183 18.6278H92.5785ZM98.2972 23H100.381V19.446C100.381 18.6662 100.935 18.142 101.681 18.142C101.928 18.142 102.299 18.1847 102.499 18.2528V16.4418C102.324 16.3949 102.107 16.3651 101.915 16.3651C101.199 16.3651 100.628 16.7827 100.39 17.6477H100.321V16.4545H98.2972V23ZM106.064 23.1236C108.122 23.1236 109.37 21.7642 109.37 19.7486C109.37 17.7287 108.122 16.3693 106.064 16.3693C104.005 16.3693 102.757 17.7287 102.757 19.7486C102.757 21.7642 104.005 23.1236 106.064 23.1236ZM106.076 21.5511C105.305 21.5511 104.879 20.8182 104.879 19.7358C104.879 18.6491 105.305 17.9119 106.076 17.9119C106.822 17.9119 107.248 18.6491 107.248 19.7358C107.248 20.8182 106.822 21.5511 106.076 21.5511ZM112.828 23.0938C113.817 23.0938 114.405 22.544 114.669 21.9389H114.733V23H116.796V14.2727H114.712V17.5753H114.669C114.422 16.9744 113.851 16.3693 112.82 16.3693C111.452 16.3693 110.212 17.4219 110.212 19.7315C110.212 21.9602 111.384 23.0938 112.828 23.0938ZM113.553 21.4702C112.782 21.4702 112.351 20.7841 112.351 19.7273C112.351 18.6747 112.777 17.9972 113.553 17.9972C114.316 17.9972 114.759 18.6577 114.759 19.7273C114.759 20.7884 114.311 21.4702 113.553 21.4702ZM122.337 20.1747C122.337 20.9375 121.851 21.3636 121.233 21.3636C120.594 21.3636 120.202 20.929 120.197 20.2173V16.4545H118.114V20.6264C118.118 22.1051 119.017 23.0852 120.364 23.0852C121.344 23.0852 122.072 22.5824 122.362 21.7812H122.43V23H124.416V16.4545H122.337V20.1747ZM128.798 23.1236C130.639 23.1236 131.781 22.054 131.836 20.4347H129.889C129.812 21.1293 129.395 21.5085 128.824 21.5085C128.091 21.5085 127.613 20.8906 127.613 19.7273C127.613 18.5724 128.095 17.9545 128.824 17.9545C129.42 17.9545 129.808 18.3594 129.889 19.0284H131.836C131.789 17.4176 130.613 16.3693 128.794 16.3693C126.735 16.3693 125.491 17.7415 125.491 19.7486C125.491 21.7472 126.727 23.1236 128.798 23.1236ZM136.597 16.4545H135.417V14.8864H133.333V16.4545H132.468V17.9886H133.333V21.1719C133.32 22.4972 134.181 23.1619 135.651 23.0938C136.154 23.0682 136.516 22.9659 136.717 22.9062L136.401 21.402C136.312 21.4233 136.103 21.4659 135.945 21.4659C135.609 21.4659 135.417 21.3295 135.417 20.9418V17.9886H136.597V16.4545Z" fill="#001C36"/>
<path d="M223.981 23H226.09V20.2898H227.522C229.521 20.2898 230.769 19.1051 230.769 17.294C230.769 15.5 229.546 14.2727 227.586 14.2727H223.981V23ZM226.09 18.6278V15.973H227.13C228.076 15.973 228.583 16.4844 228.583 17.294C228.583 18.0994 228.076 18.6278 227.13 18.6278H226.09ZM231.809 23H233.893V19.446C233.893 18.6662 234.447 18.142 235.192 18.142C235.44 18.142 235.81 18.1847 236.011 18.2528V16.4418C235.836 16.3949 235.619 16.3651 235.427 16.3651C234.711 16.3651 234.14 16.7827 233.901 17.6477H233.833V16.4545H231.809V23ZM236.86 23H238.944V16.4545H236.86V23ZM237.904 15.6918C238.496 15.6918 238.973 15.2443 238.973 14.6946C238.973 14.1449 238.496 13.7017 237.904 13.7017C237.316 13.7017 236.834 14.1449 236.834 14.6946C236.834 15.2443 237.316 15.6918 237.904 15.6918ZM243.325 23.1236C245.166 23.1236 246.308 22.054 246.364 20.4347H244.416C244.339 21.1293 243.922 21.5085 243.351 21.5085C242.618 21.5085 242.141 20.8906 242.141 19.7273C242.141 18.5724 242.622 17.9545 243.351 17.9545C243.947 17.9545 244.335 18.3594 244.416 19.0284H246.364C246.317 17.4176 245.141 16.3693 243.321 16.3693C241.263 16.3693 240.018 17.7415 240.018 19.7486C240.018 21.7472 241.254 23.1236 243.325 23.1236ZM250.49 23.1236C252.207 23.1236 253.336 22.2926 253.575 21.0057L251.662 20.9503C251.5 21.3849 251.074 21.6193 250.528 21.6193C249.727 21.6193 249.233 21.0866 249.233 20.2855V20.2301H253.596V19.7102C253.596 17.554 252.284 16.3693 250.426 16.3693C248.449 16.3693 247.179 17.7244 247.179 19.7528C247.179 21.8494 248.431 23.1236 250.49 23.1236ZM249.233 19.0199C249.262 18.3679 249.778 17.8736 250.468 17.8736C251.154 17.8736 251.649 18.3509 251.657 19.0199H249.233Z" fill="#001C36"/>
<path d="M322.475 16.8892H324.495C324.478 15.2571 323.179 14.1534 321.15 14.1534C319.156 14.1534 317.72 15.2401 317.733 16.8636C317.728 18.1889 318.657 18.9347 320.166 19.2798L321.078 19.4929C322.037 19.7145 322.467 19.9744 322.475 20.4645C322.467 20.9972 321.968 21.3679 321.12 21.3679C320.187 21.3679 319.574 20.9332 319.527 20.0938H317.507C317.532 22.1349 318.951 23.1108 321.146 23.1108C323.319 23.1108 324.606 22.1264 324.615 20.4688C324.606 19.0753 323.664 18.223 321.943 17.8438L321.193 17.6733C320.4 17.5028 319.897 17.2386 319.914 16.7188C319.919 16.2415 320.328 15.8963 321.146 15.8963C321.968 15.8963 322.42 16.267 322.475 16.8892ZM329.375 16.4545H328.194V14.8864H326.11V16.4545H325.245V17.9886H326.11V21.1719C326.098 22.4972 326.958 23.1619 328.429 23.0938C328.931 23.0682 329.294 22.9659 329.494 22.9062L329.179 21.402C329.089 21.4233 328.88 21.4659 328.723 21.4659C328.386 21.4659 328.194 21.3295 328.194 20.9418V17.9886H329.375V16.4545ZM333.423 23.1236C335.481 23.1236 336.73 21.7642 336.73 19.7486C336.73 17.7287 335.481 16.3693 333.423 16.3693C331.365 16.3693 330.116 17.7287 330.116 19.7486C330.116 21.7642 331.365 23.1236 333.423 23.1236ZM333.436 21.5511C332.664 21.5511 332.238 20.8182 332.238 19.7358C332.238 18.6491 332.664 17.9119 333.436 17.9119C334.181 17.9119 334.608 18.6491 334.608 19.7358C334.608 20.8182 334.181 21.5511 333.436 21.5511ZM340.853 23.1236C342.694 23.1236 343.836 22.054 343.891 20.4347H341.944C341.867 21.1293 341.449 21.5085 340.878 21.5085C340.145 21.5085 339.668 20.8906 339.668 19.7273C339.668 18.5724 340.15 17.9545 340.878 17.9545C341.475 17.9545 341.863 18.3594 341.944 19.0284H343.891C343.844 17.4176 342.668 16.3693 340.848 16.3693C338.79 16.3693 337.546 17.7415 337.546 19.7486C337.546 21.7472 338.782 23.1236 340.853 23.1236ZM344.957 23H347.041V21.0355L347.463 20.5241L349.023 23H351.43L349.014 19.3054L351.337 16.4545H348.976L347.135 18.7983H347.041V14.2727H344.957V23ZM359.378 16.8892H361.398C361.381 15.2571 360.081 14.1534 358.053 14.1534C356.058 14.1534 354.622 15.2401 354.635 16.8636C354.631 18.1889 355.56 18.9347 357.068 19.2798L357.98 19.4929C358.939 19.7145 359.369 19.9744 359.378 20.4645C359.369 20.9972 358.871 21.3679 358.023 21.3679C357.089 21.3679 356.476 20.9332 356.429 20.0938H354.409C354.435 22.1349 355.854 23.1108 358.048 23.1108C360.222 23.1108 361.509 22.1264 361.517 20.4688C361.509 19.0753 360.567 18.223 358.845 17.8438L358.095 17.6733C357.303 17.5028 356.8 17.2386 356.817 16.7188C356.821 16.2415 357.23 15.8963 358.048 15.8963C358.871 15.8963 359.322 16.267 359.378 16.8892ZM366.277 16.4545H365.097V14.8864H363.013V16.4545H362.148V17.9886H363.013V21.1719C363 22.4972 363.861 23.1619 365.331 23.0938C365.834 23.0682 366.196 22.9659 366.396 22.9062L366.081 21.402C365.991 21.4233 365.783 21.4659 365.625 21.4659C365.288 21.4659 365.097 21.3295 365.097 20.9418V17.9886H366.277V16.4545ZM369.185 23.1108C370.097 23.1108 370.728 22.7571 371.086 22.0881H371.137V23H373.097V18.5511C373.097 17.1662 371.866 16.3693 370.2 16.3693C368.44 16.3693 367.442 17.2557 367.276 18.4489L369.198 18.517C369.288 18.0994 369.633 17.8438 370.183 17.8438C370.694 17.8438 371.018 18.0909 371.018 18.5298V18.5511C371.018 18.9517 370.583 19.0369 369.467 19.1349C368.141 19.2457 367.033 19.7358 367.033 21.1847C367.033 22.4801 367.933 23.1108 369.185 23.1108ZM369.829 21.7472C369.347 21.7472 369.006 21.517 369.006 21.0824C369.006 20.6605 369.339 20.4048 369.931 20.3153C370.319 20.2599 370.796 20.1747 371.031 20.0511V20.6733C371.031 21.3125 370.494 21.7472 369.829 21.7472ZM378.066 16.4545H376.886V14.8864H374.802V16.4545H373.937V17.9886H374.802V21.1719C374.789 22.4972 375.65 23.1619 377.12 23.0938C377.623 23.0682 377.985 22.9659 378.185 22.9062L377.87 21.402C377.781 21.4233 377.572 21.4659 377.414 21.4659C377.077 21.4659 376.886 21.3295 376.886 20.9418V17.9886H378.066V16.4545ZM383.352 20.1747C383.352 20.9375 382.866 21.3636 382.249 21.3636C381.609 21.3636 381.217 20.929 381.213 20.2173V16.4545H379.129V20.6264C379.134 22.1051 380.033 23.0852 381.379 23.0852C382.359 23.0852 383.088 22.5824 383.378 21.7812H383.446V23H385.432V16.4545H383.352V20.1747ZM392.473 18.4531C392.362 17.1577 391.301 16.3693 389.528 16.3693C387.755 16.3693 386.626 17.1406 386.635 18.4531C386.626 19.4588 387.27 20.1065 388.578 20.3494L389.72 20.5668C390.261 20.6733 390.508 20.8438 390.517 21.1335C390.508 21.4616 390.142 21.679 389.609 21.679C389.017 21.679 388.616 21.4233 388.527 20.946L386.468 20.9972C386.618 22.2926 387.73 23.1236 389.6 23.1236C391.352 23.1236 392.626 22.25 392.635 20.9034C392.626 19.9489 391.995 19.3821 390.691 19.1307L389.43 18.892C388.876 18.7812 388.697 18.5852 388.701 18.3338C388.697 18.0014 389.085 17.7969 389.566 17.7969C390.116 17.7969 390.5 18.0909 390.559 18.5043L392.473 18.4531Z" fill="#001C36"/>
<path d="M457.473 23H459.582V20.2898H461.014C463.013 20.2898 464.261 19.1051 464.261 17.294C464.261 15.5 463.038 14.2727 461.078 14.2727H457.473V23ZM459.582 18.6278V15.973H460.622C461.568 15.973 462.075 16.4844 462.075 17.294C462.075 18.0994 461.568 18.6278 460.622 18.6278H459.582ZM465.301 23H467.385V19.446C467.385 18.6662 467.939 18.142 468.685 18.142C468.932 18.142 469.303 18.1847 469.503 18.2528V16.4418C469.328 16.3949 469.111 16.3651 468.919 16.3651C468.203 16.3651 467.632 16.7827 467.393 17.6477H467.325V16.4545H465.301V23ZM473.067 23.1236C475.126 23.1236 476.374 21.7642 476.374 19.7486C476.374 17.7287 475.126 16.3693 473.067 16.3693C471.009 16.3693 469.761 17.7287 469.761 19.7486C469.761 21.7642 471.009 23.1236 473.067 23.1236ZM473.08 21.5511C472.309 21.5511 471.883 20.8182 471.883 19.7358C471.883 18.6491 472.309 17.9119 473.08 17.9119C473.826 17.9119 474.252 18.6491 474.252 19.7358C474.252 20.8182 473.826 21.5511 473.08 21.5511ZM479.832 23.0938C480.821 23.0938 481.409 22.544 481.673 21.9389H481.737V23H483.8V14.2727H481.716V17.5753H481.673C481.426 16.9744 480.855 16.3693 479.824 16.3693C478.456 16.3693 477.216 17.4219 477.216 19.7315C477.216 21.9602 478.388 23.0938 479.832 23.0938ZM480.557 21.4702C479.786 21.4702 479.355 20.7841 479.355 19.7273C479.355 18.6747 479.781 17.9972 480.557 17.9972C481.32 17.9972 481.763 18.6577 481.763 19.7273C481.763 20.7884 481.315 21.4702 480.557 21.4702ZM489.341 20.1747C489.341 20.9375 488.855 21.3636 488.237 21.3636C487.598 21.3636 487.206 20.929 487.201 20.2173V16.4545H485.118V20.6264C485.122 22.1051 486.021 23.0852 487.368 23.0852C488.348 23.0852 489.076 22.5824 489.366 21.7812H489.434V23H491.42V16.4545H489.341V20.1747ZM495.802 23.1236C497.643 23.1236 498.785 22.054 498.84 20.4347H496.893C496.816 21.1293 496.398 21.5085 495.827 21.5085C495.094 21.5085 494.617 20.8906 494.617 19.7273C494.617 18.5724 495.099 17.9545 495.827 17.9545C496.424 17.9545 496.812 18.3594 496.893 19.0284H498.84C498.793 17.4176 497.617 16.3693 495.798 16.3693C493.739 16.3693 492.495 17.7415 492.495 19.7486C492.495 21.7472 493.731 23.1236 495.802 23.1236ZM503.601 16.4545H502.421V14.8864H500.337V16.4545H499.472V17.9886H500.337V21.1719C500.324 22.4972 501.185 23.1619 502.655 23.0938C503.158 23.0682 503.52 22.9659 503.721 22.9062L503.405 21.402C503.316 21.4233 503.107 21.4659 502.949 21.4659C502.613 21.4659 502.421 21.3295 502.421 20.9418V17.9886H503.601V16.4545ZM510.468 23C513.127 23 514.777 21.3594 514.777 18.6321C514.777 15.9091 513.127 14.2727 510.464 14.2727H507.243V23H510.468ZM509.352 21.2017V16.071H510.358C511.858 16.071 512.663 16.7528 512.663 18.6321C512.663 20.5199 511.858 21.2017 510.387 21.2017H509.352ZM519.068 23.1236C520.785 23.1236 521.914 22.2926 522.153 21.0057L520.24 20.9503C520.078 21.3849 519.652 21.6193 519.106 21.6193C518.305 21.6193 517.811 21.0866 517.811 20.2855V20.2301H522.174V19.7102C522.174 17.554 520.862 16.3693 519.004 16.3693C517.027 16.3693 515.757 17.7244 515.757 19.7528C515.757 21.8494 517.01 23.1236 519.068 23.1236ZM517.811 19.0199C517.841 18.3679 518.356 17.8736 519.047 17.8736C519.733 17.8736 520.227 18.3509 520.235 19.0199H517.811ZM523.239 23H525.322V19.1264C525.322 18.4787 525.702 18.0653 526.247 18.0653C526.788 18.0653 527.146 18.4446 527.146 19.0497V23H529.149V19.0923C529.149 18.4659 529.494 18.0653 530.07 18.0653C530.598 18.0653 530.973 18.419 530.973 19.071V23H533.057V18.5938C533.057 17.2088 532.205 16.3693 530.969 16.3693C530.001 16.3693 529.239 16.8764 528.996 17.6562H528.928C528.753 16.8722 528.05 16.3693 527.142 16.3693C526.247 16.3693 525.565 16.8594 525.293 17.6562H525.22V16.4545H523.239V23ZM536.193 23.1108C537.105 23.1108 537.736 22.7571 538.094 22.0881H538.145V23H540.105V18.5511C540.105 17.1662 538.874 16.3693 537.207 16.3693C535.447 16.3693 534.45 17.2557 534.284 18.4489L536.206 18.517C536.295 18.0994 536.641 17.8438 537.19 17.8438C537.702 17.8438 538.026 18.0909 538.026 18.5298V18.5511C538.026 18.9517 537.591 19.0369 536.474 19.1349C535.149 19.2457 534.041 19.7358 534.041 21.1847C534.041 22.4801 534.94 23.1108 536.193 23.1108ZM536.837 21.7472C536.355 21.7472 536.014 21.517 536.014 21.0824C536.014 20.6605 536.347 20.4048 536.939 20.3153C537.327 20.2599 537.804 20.1747 538.038 20.0511V20.6733C538.038 21.3125 537.501 21.7472 536.837 21.7472ZM543.463 19.267C543.467 18.5213 543.902 18.0781 544.562 18.0781C545.223 18.0781 545.615 18.5128 545.611 19.2372V23H547.695V18.8281C547.699 17.3537 546.8 16.3693 545.423 16.3693C544.456 16.3693 543.723 16.8594 543.433 17.6562H543.361V16.4545H541.379V23H543.463V19.267ZM551.375 23.0938C552.364 23.0938 552.952 22.544 553.216 21.9389H553.28V23H555.343V14.2727H553.259V17.5753H553.216C552.969 16.9744 552.398 16.3693 551.367 16.3693C549.999 16.3693 548.759 17.4219 548.759 19.7315C548.759 21.9602 549.931 23.0938 551.375 23.0938ZM552.1 21.4702C551.328 21.4702 550.898 20.7841 550.898 19.7273C550.898 18.6747 551.324 17.9972 552.1 17.9972C552.863 17.9972 553.306 18.6577 553.306 19.7273C553.306 20.7884 552.858 21.4702 552.1 21.4702Z" fill="#001C36"/>
<path d="M613.875 23H619.615V21.2869H615.985V14.2727H613.875V23ZM622.553 23.1108C623.464 23.1108 624.095 22.7571 624.453 22.0881H624.504V23H626.464V18.5511C626.464 17.1662 625.233 16.3693 623.567 16.3693C621.807 16.3693 620.81 17.2557 620.643 18.4489L622.565 18.517C622.655 18.0994 623 17.8438 623.55 17.8438C624.061 17.8438 624.385 18.0909 624.385 18.5298V18.5511C624.385 18.9517 623.95 19.0369 622.834 19.1349C621.509 19.2457 620.401 19.7358 620.401 21.1847C620.401 22.4801 621.3 23.1108 622.553 23.1108ZM623.196 21.7472C622.714 21.7472 622.374 21.517 622.374 21.0824C622.374 20.6605 622.706 20.4048 623.298 20.3153C623.686 20.2599 624.163 20.1747 624.398 20.0511V20.6733C624.398 21.3125 623.861 21.7472 623.196 21.7472ZM633.453 18.4531C633.342 17.1577 632.281 16.3693 630.509 16.3693C628.736 16.3693 627.607 17.1406 627.615 18.4531C627.607 19.4588 628.25 20.1065 629.558 20.3494L630.7 20.5668C631.241 20.6733 631.489 20.8438 631.497 21.1335C631.489 21.4616 631.122 21.679 630.589 21.679C629.997 21.679 629.597 21.4233 629.507 20.946L627.449 20.9972C627.598 22.2926 628.71 23.1236 630.581 23.1236C632.332 23.1236 633.607 22.25 633.615 20.9034C633.607 19.9489 632.976 19.3821 631.672 19.1307L630.411 18.892C629.857 18.7812 629.678 18.5852 629.682 18.3338C629.678 18.0014 630.065 17.7969 630.547 17.7969C631.097 17.7969 631.48 18.0909 631.54 18.5043L633.453 18.4531ZM638.336 16.4545H637.155V14.8864H635.071V16.4545H634.206V17.9886H635.071V21.1719C635.059 22.4972 635.919 23.1619 637.39 23.0938C637.892 23.0682 638.255 22.9659 638.455 22.9062L638.14 21.402C638.05 21.4233 637.841 21.4659 637.684 21.4659C637.347 21.4659 637.155 21.3295 637.155 20.9418V17.9886H638.336V16.4545ZM647.257 14.2727V19.7188C647.257 20.6264 646.613 21.2784 645.672 21.2784C644.725 21.2784 644.086 20.6264 644.086 19.7188V14.2727H641.977V19.902C641.977 21.8537 643.451 23.1108 645.672 23.1108C647.875 23.1108 649.362 21.8537 649.362 19.902V14.2727H647.257ZM650.684 25.4545H652.768V21.9389H652.81C653.075 22.544 653.663 23.0938 654.651 23.0938C656.1 23.0938 657.268 21.9602 657.268 19.7315C657.268 17.4219 656.032 16.3693 654.664 16.3693C653.629 16.3693 653.062 16.9744 652.81 17.5753H652.746V16.4545H650.684V25.4545ZM652.725 19.7273C652.725 18.6577 653.168 17.9972 653.931 17.9972C654.702 17.9972 655.129 18.6747 655.129 19.7273C655.129 20.7841 654.702 21.4702 653.931 21.4702C653.168 21.4702 652.725 20.7884 652.725 19.7273ZM660.75 23.0938C661.739 23.0938 662.327 22.544 662.591 21.9389H662.655V23H664.718V14.2727H662.634V17.5753H662.591C662.344 16.9744 661.773 16.3693 660.742 16.3693C659.374 16.3693 658.134 17.4219 658.134 19.7315C658.134 21.9602 659.306 23.0938 660.75 23.0938ZM661.475 21.4702C660.703 21.4702 660.273 20.7841 660.273 19.7273C660.273 18.6747 660.699 17.9972 661.475 17.9972C662.238 17.9972 662.681 18.6577 662.681 19.7273C662.681 20.7884 662.233 21.4702 661.475 21.4702ZM667.881 23.1108C668.793 23.1108 669.423 22.7571 669.781 22.0881H669.832V23H671.793V18.5511C671.793 17.1662 670.561 16.3693 668.895 16.3693C667.135 16.3693 666.138 17.2557 665.972 18.4489L667.893 18.517C667.983 18.0994 668.328 17.8438 668.878 17.8438C669.389 17.8438 669.713 18.0909 669.713 18.5298V18.5511C669.713 18.9517 669.278 19.0369 668.162 19.1349C666.837 19.2457 665.729 19.7358 665.729 21.1847C665.729 22.4801 666.628 23.1108 667.881 23.1108ZM668.524 21.7472C668.043 21.7472 667.702 21.517 667.702 21.0824C667.702 20.6605 668.034 20.4048 668.626 20.3153C669.014 20.2599 669.491 20.1747 669.726 20.0511V20.6733C669.726 21.3125 669.189 21.7472 668.524 21.7472ZM676.761 16.4545H675.581V14.8864H673.497V16.4545H672.632V17.9886H673.497V21.1719C673.484 22.4972 674.345 23.1619 675.815 23.0938C676.318 23.0682 676.68 22.9659 676.881 22.9062L676.565 21.402C676.476 21.4233 676.267 21.4659 676.109 21.4659C675.773 21.4659 675.581 21.3295 675.581 20.9418V17.9886H676.761V16.4545ZM680.814 23.1236C682.531 23.1236 683.661 22.2926 683.899 21.0057L681.986 20.9503C681.824 21.3849 681.398 21.6193 680.852 21.6193C680.051 21.6193 679.557 21.0866 679.557 20.2855V20.2301H683.92V19.7102C683.92 17.554 682.608 16.3693 680.75 16.3693C678.773 16.3693 677.503 17.7244 677.503 19.7528C677.503 21.8494 678.756 23.1236 680.814 23.1236ZM679.557 19.0199C679.587 18.3679 680.102 17.8736 680.793 17.8736C681.479 17.8736 681.973 18.3509 681.982 19.0199H679.557ZM687.375 23.0938C688.364 23.0938 688.952 22.544 689.216 21.9389H689.28V23H691.343V14.2727H689.259V17.5753H689.216C688.969 16.9744 688.398 16.3693 687.367 16.3693C685.999 16.3693 684.759 17.4219 684.759 19.7315C684.759 21.9602 685.931 23.0938 687.375 23.0938ZM688.1 21.4702C687.328 21.4702 686.898 20.7841 686.898 19.7273C686.898 18.6747 687.324 17.9972 688.1 17.9972C688.863 17.9972 689.306 18.6577 689.306 19.7273C689.306 20.7884 688.858 21.4702 688.1 21.4702Z" fill="#001C36"/>
</svg>
