<svg width="12" height="8" viewBox="0 0 12 8" fill="none" xmlns="http://www.w3.org/2000/svg">
<path fill-rule="evenodd" clip-rule="evenodd" d="M5.66427 7.63733C5.0549 7.91615 4.38524 8.03741 3.71679 7.98996C3.04834 7.94251 2.40253 7.72789 1.83864 7.36579C1.27476 7.00369 0.810894 6.50573 0.489628 5.91763C0.168363 5.32952 0 4.67013 0 4C0 3.32987 0.168363 2.67048 0.489628 2.08237C0.810894 1.49427 1.27476 0.996308 1.83864 0.63421C2.40253 0.272112 3.04834 0.0574858 3.71679 0.0100393C4.38524 -0.0374072 5.0549 0.0838471 5.66427 0.362668C6.27364 0.0838471 6.9433 -0.0374072 7.61175 0.0100393C8.2802 0.0574858 8.92602 0.272112 9.4899 0.63421C10.0538 0.996308 10.5176 1.49427 10.8389 2.08237C11.1602 2.67048 11.3285 3.32987 11.3285 4C11.3285 4.67013 11.1602 5.32952 10.8389 5.91763C10.5176 6.50573 10.0538 7.00369 9.4899 7.36579C8.92602 7.72789 8.2802 7.94251 7.61175 7.98996C6.9433 8.03741 6.27364 7.91615 5.66427 7.63733ZM4.33094 6.646C3.9557 6.69299 3.57476 6.65963 3.21341 6.54814C2.85205 6.43665 2.51853 6.24958 2.235 5.99934C1.95147 5.7491 1.72441 5.44142 1.56888 5.09671C1.41335 4.75201 1.33292 4.37817 1.33292 4C1.33292 3.62183 1.41335 3.24799 1.56888 2.90329C1.72441 2.55858 1.95147 2.2509 2.235 2.00066C2.51853 1.75042 2.85205 1.56335 3.21341 1.45186C3.57476 1.34037 3.9557 1.30701 4.33094 1.354C3.68523 2.08402 3.32946 3.02538 3.33094 4C3.33094 5.01467 3.70894 5.94067 4.33094 6.646ZM6.9976 1.354C7.37284 1.30701 7.75378 1.34037 8.11514 1.45186C8.4765 1.56335 8.81001 1.75042 9.09354 2.00066C9.37707 2.2509 9.60414 2.55858 9.75966 2.90329C9.91519 3.24799 9.99562 3.62183 9.99562 4C9.99562 4.37817 9.91519 4.75201 9.75966 5.09671C9.60414 5.44142 9.37707 5.7491 9.09354 5.99934C8.81001 6.24958 8.4765 6.43665 8.11514 6.54814C7.75378 6.65963 7.37284 6.69299 6.9976 6.646C7.64326 5.91594 7.99902 4.9746 7.9976 4C7.99902 3.0254 7.64326 2.08406 6.9976 1.354ZM5.66427 1.918C6.27427 2.40667 6.66427 3.158 6.66427 4C6.66427 4.842 6.27427 5.59333 5.66427 6.082C5.35192 5.83235 5.09983 5.51554 4.9267 5.1551C4.75358 4.79467 4.66389 4.39986 4.66427 4C4.66427 3.158 5.05427 2.40667 5.66427 1.918Z" fill="white"/>
</svg>
