<svg width="8" height="8" viewBox="0 0 8 8" fill="none" xmlns="http://www.w3.org/2000/svg">
<path d="M3.996 0C1.788 0 0 1.792 0 4C0 6.208 1.788 8 3.996 8C6.208 8 8 6.208 8 4C8 1.792 6.208 0 3.996 0ZM5.6 5.6C5.56299 5.63708 5.51904 5.6665 5.47065 5.68657C5.42226 5.70665 5.37039 5.71698 5.318 5.71698C5.26561 5.71698 5.21374 5.70665 5.16535 5.68657C5.11696 5.6665 5.07301 5.63708 5.036 5.6L3.72 4.284C3.6822 4.24695 3.65214 4.20278 3.63154 4.15403C3.61094 4.10528 3.60022 4.05292 3.6 4V2.4C3.6 2.18 3.78 2 4 2C4.22 2 4.4 2.18 4.4 2.4V3.836L5.6 5.036C5.756 5.192 5.756 5.444 5.6 5.6Z" fill="white"/>
</svg>
