<svg width="69" height="69" viewBox="0 0 69 69" fill="none" xmlns="http://www.w3.org/2000/svg">
<rect width="69" height="69" rx="5" fill="#32D3CA"/>
<path d="M20.5101 22H49.4899C50.6284 22 51.5599 21.1 51.5599 20C51.5599 18.9 50.6284 18 49.4899 18H20.5101C19.3716 18 18.4401 18.9 18.4401 20C18.4401 21.1 19.3716 22 20.5101 22ZM51.8911 25.6C51.7048 24.68 50.8561 24 49.8625 24H20.1375C19.1439 24 18.2952 24.68 18.1089 25.6L16.0389 35.6C15.7905 36.84 16.7634 38 18.0675 38H18.4401V48C18.4401 49.1 19.3716 50 20.5101 50H37.07C38.2085 50 39.14 49.1 39.14 48V38H47.4199V48C47.4199 49.1 48.3514 50 49.4899 50C50.6284 50 51.5599 49.1 51.5599 48V38H51.9325C53.2366 38 54.2095 36.84 53.9611 35.6L51.8911 25.6V25.6ZM35 46H22.5801V38H35V46Z" fill="#001C36"/>
</svg>
