<svg width="17" height="12" viewBox="0 0 17 12" fill="none" xmlns="http://www.w3.org/2000/svg">
<path fill-rule="evenodd" clip-rule="evenodd" d="M8.5 11.456C7.58555 11.8742 6.58064 12.0561 5.57754 11.9849C4.57445 11.9138 3.60531 11.5918 2.75913 11.0487C1.91296 10.5055 1.21685 9.75859 0.734753 8.87644C0.252651 7.99428 0 7.0052 0 6C0 4.9948 0.252651 4.00571 0.734753 3.12356C1.21685 2.24141 1.91296 1.49446 2.75913 0.951315C3.60531 0.408168 4.57445 0.0862286 5.57754 0.0150589C6.58064 -0.0561108 7.58555 0.125771 8.5 0.544001C9.41445 0.125771 10.4194 -0.0561108 11.4225 0.0150589C12.4256 0.0862286 13.3947 0.408168 14.2409 0.951315C15.087 1.49446 15.7831 2.24141 16.2652 3.12356C16.7473 4.00571 17 4.9948 17 6C17 7.0052 16.7473 7.99428 16.2652 8.87644C15.7831 9.75859 15.087 10.5055 14.2409 11.0487C13.3947 11.5918 12.4256 11.9138 11.4225 11.9849C10.4194 12.0561 9.41445 11.8742 8.5 11.456ZM6.49915 9.969C5.93606 10.0395 5.36441 9.98945 4.82215 9.82221C4.27988 9.65498 3.7794 9.37437 3.35392 8.99901C2.92845 8.62365 2.5877 8.16212 2.35432 7.64507C2.12093 7.12801 2.00022 6.56725 2.00022 6C2.00022 5.43275 2.12093 4.87199 2.35432 4.35493C2.5877 3.83787 2.92845 3.37635 3.35392 3.00099C3.7794 2.62563 4.27988 2.34502 4.82215 2.17779C5.36441 2.01055 5.93606 1.96052 6.49915 2.031C5.53018 3.12604 4.9963 4.53808 4.99852 6C4.99852 7.522 5.56576 8.911 6.49915 9.969ZM10.5008 2.031C11.0639 1.96052 11.6356 2.01055 12.1779 2.17779C12.7201 2.34502 13.2206 2.62563 13.6461 3.00099C14.0716 3.37635 14.4123 3.83787 14.6457 4.35493C14.8791 4.87199 14.9998 5.43275 14.9998 6C14.9998 6.56725 14.8791 7.12801 14.6457 7.64507C14.4123 8.16212 14.0716 8.62365 13.6461 8.99901C13.2206 9.37437 12.7201 9.65498 12.1779 9.82221C11.6356 9.98945 11.0639 10.0395 10.5008 9.969C11.4697 8.87391 12.0036 7.4619 12.0015 6C12.0036 4.53809 11.4697 3.12608 10.5008 2.031V2.031ZM8.5 2.877C9.41539 3.61 10.0006 4.737 10.0006 6C10.0006 7.263 9.41539 8.39 8.5 9.123C8.03128 8.74853 7.65297 8.27332 7.39318 7.73266C7.13339 7.192 6.99879 6.59979 6.99937 6C6.99937 4.737 7.58461 3.61 8.5 2.877Z" fill="white"/>
</svg>
